<svg xmlns="http://www.w3.org/2000/svg" width="23.742" height="14.962" viewBox="0 0 23.742 14.962">
  <g id="value" transform="translate(-70 -24.989)">
    <path id="Path_51650" data-name="Path 51650" d="M216.348,29.158V27.9a2.907,2.907,0,1,0-5.813,0v1.262a2.907,2.907,0,1,0,5.813,0Zm-5.048,0V27.9a2.141,2.141,0,1,1,4.282,0v1.262a2.141,2.141,0,1,1-4.282,0Z" transform="translate(-131.565)"/>
    <path id="Path_51651" data-name="Path 51651" d="M77.191,146.384h9.37a.383.383,0,0,0,.383-.383v-.879h6.415a.383.383,0,0,0,.383-.383v-2.485a2.87,2.87,0,0,0-2.687-2.863.447.447,0,0,0-.394.218,1.757,1.757,0,0,1-2.773-.068.383.383,0,0,0-.318-.155,2.839,2.839,0,0,0-1.409.411,3.219,3.219,0,0,0-2.247-1.114.466.466,0,0,0-.395.23,2.062,2.062,0,0,1-3.253-.079.382.382,0,0,0-.318-.155,3.2,3.2,0,0,0-2.224.97c-.048.049-.094.1-.139.153a2.847,2.847,0,0,0-1.306-.41.448.448,0,0,0-.394.218,1.757,1.757,0,0,1-2.772-.068.384.384,0,0,0-.318-.155,2.869,2.869,0,0,0-2.8,2.868v2.485a.383.383,0,0,0,.383.383h6.425V146a.383.383,0,0,0,.383.383Zm10.216-6.22a2.524,2.524,0,0,0,3.778.01,2.105,2.105,0,0,1,1.791,2.08v2.1H86.944V141.9a3.2,3.2,0,0,0-.354-1.466A2.07,2.07,0,0,1,87.406,140.164Zm-7.623-.709a2.828,2.828,0,0,0,4.272.01,2.46,2.46,0,0,1,2.123,2.434v3.718h-8.6V141.9A2.474,2.474,0,0,1,79.784,139.455Zm-9.018,4.9v-2.1a2.118,2.118,0,0,1,1.867-2.089,2.523,2.523,0,0,0,3.778.01,2.089,2.089,0,0,1,.747.264,3.208,3.208,0,0,0-.35,1.462v2.457Z" transform="translate(0 -106.433)"/>
    <path id="Path_51652" data-name="Path 51652" d="M336.314,53.957v-1.1a2.592,2.592,0,0,0-5.184,0v1.1a2.592,2.592,0,0,0,5.184,0Zm-4.418,0v-1.1a1.826,1.826,0,1,1,3.652,0v1.1a1.826,1.826,0,0,1-3.652,0Z" transform="translate(-244.464 -23.658)"/>
    <path id="Path_51653" data-name="Path 51653" d="M104.83,53.957v-1.1a2.592,2.592,0,0,0-5.184,0v1.1a2.592,2.592,0,0,0,5.184,0Zm-4.418,0v-1.1a1.826,1.826,0,0,1,3.652,0v1.1a1.826,1.826,0,0,1-3.652,0Z" transform="translate(-27.754 -23.658)"/>
  </g>
</svg>
