<svg xmlns="http://www.w3.org/2000/svg" width="17.809" height="17.809" viewBox="0 0 17.809 17.809">
  <g id="Group_31090" data-name="Group 31090" transform="translate(6729 -2573)">
    <g id="dashboard_2_" data-name="dashboard (2)" transform="translate(-6729 2573)">
      <path id="Path_50248" data-name="Path 50248" d="M6.864,5.936H1.3A1.3,1.3,0,0,1,0,4.638V1.3A1.3,1.3,0,0,1,1.3,0H6.864a1.3,1.3,0,0,1,1.3,1.3V4.638A1.3,1.3,0,0,1,6.864,5.936ZM1.3,1.113a.186.186,0,0,0-.185.185V4.638a.186.186,0,0,0,.185.186H6.864a.186.186,0,0,0,.186-.186V1.3a.186.186,0,0,0-.186-.185Zm0,0" fill="#4c9a2a"/>
      <path id="Path_50249" data-name="Path 50249" d="M6.864,223.72H1.3a1.3,1.3,0,0,1-1.3-1.3v-7.791a1.3,1.3,0,0,1,1.3-1.3H6.864a1.3,1.3,0,0,1,1.3,1.3v7.791A1.3,1.3,0,0,1,6.864,223.72ZM1.3,214.445a.186.186,0,0,0-.185.186v7.791a.186.186,0,0,0,.185.185H6.864a.186.186,0,0,0,.186-.185v-7.791a.186.186,0,0,0-.186-.186Zm0,0" transform="translate(0 -205.912)" fill="#4c9a2a"/>
      <path id="Path_50250" data-name="Path 50250" d="M284.2,347.268h-5.565a1.3,1.3,0,0,1-1.3-1.3v-3.339a1.3,1.3,0,0,1,1.3-1.3H284.2a1.3,1.3,0,0,1,1.3,1.3v3.339A1.3,1.3,0,0,1,284.2,347.268Zm-5.565-4.823a.186.186,0,0,0-.186.186v3.339a.186.186,0,0,0,.186.185H284.2a.186.186,0,0,0,.185-.185v-3.339a.186.186,0,0,0-.185-.186Zm0,0" transform="translate(-267.686 -329.46)" fill="#4c9a2a"/>
      <path id="Path_50251" data-name="Path 50251" d="M284.2,10.388h-5.565a1.3,1.3,0,0,1-1.3-1.3V1.3a1.3,1.3,0,0,1,1.3-1.3H284.2a1.3,1.3,0,0,1,1.3,1.3V9.09A1.3,1.3,0,0,1,284.2,10.388Zm-5.565-9.275a.186.186,0,0,0-.186.185V9.09a.186.186,0,0,0,.186.186H284.2a.186.186,0,0,0,.185-.186V1.3a.186.186,0,0,0-.185-.185Zm0,0" transform="translate(-267.686)" fill="#4c9a2a"/>
    </g>
  </g>
</svg>
