<svg xmlns="http://www.w3.org/2000/svg" width="154.016" height="220.757" viewBox="0 0 154.016 220.757">
  <g id="A_Human_Standing" data-name="A Human/Standing" transform="translate(-65 -15)">
    <g id="Head_Front" data-name="Head/Front" transform="translate(100.269 15)">
      <g id="Head" transform="translate(11.103 10.45)">
        <path id="Head-2" data-name="Head" d="M0,48,5.311,22.678C2.349,19.122.344,14.763.679,9.88,1.645-4.192,20.8-1.1,24.521,6.006S27.8,31.123,22.989,32.392c-1.92.506-6.01-.734-10.173-3.3L15.429,48Z" transform="translate(-0.169 0.307)" fill="#b28b67"/>
      </g>
      <path id="hair" d="M-61.041,15.611a4.9,4.9,0,0,1-1.021-1.9,19.2,19.2,0,0,1-.654-2.155A4.747,4.747,0,0,1-62,7.259a4.93,4.93,0,0,1,3.265-1.414,6,6,0,0,1,2.315.293c.737.242,1.373.726,2.088,1.025a9.343,9.343,0,0,1,1.1-4.591A4.577,4.577,0,0,1-49.821.349a6.758,6.758,0,0,1,4.152.836c.323.175.643.358.949.565A2.659,2.659,0,0,0-43.9,2.2c.335.079.5-.115.719-.359a5.466,5.466,0,0,1,.848-.763,4.994,4.994,0,0,1,4.673-.8,4.343,4.343,0,0,1,1.905,1.377c.435.57.745,1.475,1.345,1.872.255.169.434-.055.666-.22.348-.248.68-.522,1.033-.763a4.73,4.73,0,0,1,1.6-.726c.84-.194,2-.149,2.241.952A4.542,4.542,0,0,1-28.87,4.04c-.04.572-.082,1.143-.131,1.714a12.379,12.379,0,0,1-.167,1.278,1.87,1.87,0,0,0-.083.877c.122.284.683.123.923.132a3.646,3.646,0,0,1,1.387.3,1.493,1.493,0,0,1,.84.777,1.4,1.4,0,0,1,.023.73,2.178,2.178,0,0,0,.044.749c.636-.313,2.841-1.009,3.118.131a1.783,1.783,0,0,1-.278,1.129,9.783,9.783,0,0,1-1.027,1.564,13.985,13.985,0,0,1-2.737,2.655,1.793,1.793,0,0,1,.468,3,2.222,2.222,0,0,1-1.632.473,3.608,3.608,0,0,0-.675-.053,1.613,1.613,0,0,1-.306.1,9.1,9.1,0,0,1-2.5-.318,8.253,8.253,0,0,1-3.817-2,1.177,1.177,0,0,0-.883-.405c-.328,0-.65.093-.978.1a7.048,7.048,0,0,1-2.456-.684,9.267,9.267,0,0,1-.8,3.267c-.363.8-1.122.915-1.867.985-2.383.224-4.774-.026-7.16-.023,2.31.522,4.7.737,6.986,1.352,1.035.278.245.975-.2,1.459a8.406,8.406,0,0,0-1.646,2.822,4.978,4.978,0,0,0-4.9-1.991,3.494,3.494,0,0,0-2.081,5.044,6.462,6.462,0,0,0,3.127,2c-.851.885-1.057,2.191-1.569,3.291a2.355,2.355,0,0,1-1.172,1.345,1.37,1.37,0,0,0-.619.246c-.2.211-.253.447-.514.628a2.9,2.9,0,0,1-3.588-.276,2.342,2.342,0,0,1,.08-3.071c-1.109-.462-3.129-1.057-2.688-2.784-2.4-.16-8.237-4.056-5.012-6.9-1.77-1-3.4-3.445-2.259-5.6a5.478,5.478,0,0,1,4.582-2.489" transform="translate(66 0)" fill="#191847"/>
    </g>
    <g id="Bottom_Skinny_Jeans_1" data-name="Bottom/Skinny Jeans 1" transform="translate(65 127.338)">
      <g id="Seat" transform="translate(0 27.431)">
        <g id="Seat-2" data-name="Seat">
          <path id="Seat_Stuff" data-name="Seat Stuff" d="M18.041,0H68.5L75.11,80.988H0Z" fill="#c5cfd6"/>
          <path id="Seat_Stuff-2" data-name="Seat Stuff" d="M18.041,0H33.56l9.288,80.988H0Z" fill="rgba(0,0,0,0.1)"/>
        </g>
      </g>
      <path id="Skin" d="M37.314,92.449c-.654-8.262-1.869-36.865-.653-50.1.513-5.589,1.066-10.9,1.61-15.627C26.607,47.693,7.522,78.379,7.522,78.379L0,74.942S8.86,45.751,14.53,33.726C21,20,27.071,8.244,29.625,4.1c4.018-6.513,11.012-4.24,14.707-.3,5.38-3.23,14.405.92,14.4,5.54C58.713,23.169,46.1,88.318,45.439,92.436a4.472,4.472,0,0,1-4.488,3.511A3.489,3.489,0,0,1,37.314,92.449Z" transform="translate(81.691 9.75)" fill="#b28b67"/>
      <path id="LegLower" d="M0,73.046l3.342-66.3c2.409-11.464,22.8-6.144,22.79,0-.019,13.948-8.4,62.13-8.4,66.285Z" transform="translate(107.212 5.244) rotate(20)" fill="#02020f"/>
      <g id="Right_Shoe" data-name="Right Shoe" transform="translate(81.828 76.854) rotate(30)">
        <path id="shoe" d="M2.922,3.07a1.306,1.306,0,0,0-1.675.881L0,8.343A41.958,41.958,0,0,0,.589,13.5H37.426s1.436-4.747-1.658-5.126-5.14-.684-5.14-.684L13.507.057a.653.653,0,0,0-.87.348l-1.1,2.67A14.8,14.8,0,0,1,6.882,4.41Z" transform="translate(0 0)" fill="#e4e4e4"/>
      </g>
      <g id="Right_Shoe-2" data-name="Right Shoe" transform="translate(116.257 94.92)">
        <path id="shoe-2" data-name="shoe" d="M2.922,3.4a1.306,1.306,0,0,0-1.675.881L0,8.675a41.958,41.958,0,0,0,.589,5.156H37.426s1.436-4.747-1.658-5.126-5.14-.684-5.14-.684L13.507.389a.653.653,0,0,0-.87.348l-1.1,2.67A14.8,14.8,0,0,1,6.882,4.742Z" transform="translate(0 -0.332)" fill="#e4e4e4"/>
      </g>
      <path id="Leg_and_Butt" data-name="Leg and Butt" d="M111.535,23.8c0,17.352-8.24,57.826-8.246,61.647l-17.73.014S89.452,31.283,88.32,30.7s-46.405,4.52-59.983,4.52C8.757,35.22.657,22.873,0,0H38.787c7.9.845,49.091,9.154,64.389,12.01C109.725,13.233,111.535,19.015,111.535,23.8Z" transform="translate(30.697 0)" fill="#191847"/>
    </g>
    <g id="Body_Long_Sleeve_1" data-name="Body/Long Sleeve 1" transform="translate(87.353 58.76)">
      <path id="Skin-2" data-name="Skin" d="M35.505,33.6l9.958-5.471s2.1-7.975,5.011-8.025c.752-.35.465,1.182.357,2.713-.106,1.508-.039,3.017,1.365,2.728,2.83-.583,9.737-5.719,10.927-4.677,1.761,1.544.191,6.281-1.659,8.638-3.458,4.405-6.32,5.912-13.395,7.884-5.548,1.547-12,6.2-12,6.2ZM0,23.129,22.67,10.712A56.083,56.083,0,0,1,33.813.282c1.118-.467,3.073-.749,1.245,2.5s-3.606,6.741-2.675,7.741c.409.439,1.087.416,1.813.392.926-.029,1.93-.059,2.553.872q1.112,1.661-11.905,5.249L8.372,32.114Z" transform="translate(53.174 4.76)" fill="#b28b67"/>
      <path id="Sleeve" d="M3.6,4.157A55.7,55.7,0,0,0,34.453,0l2.834,10.467c-8.907,6.42-20.724,10.982-30.146,9.217A8.656,8.656,0,0,1,3.6,4.157Z" transform="translate(37.932 21.58) rotate(-9)" fill="#2f3676"/>
      <path id="Clothes" d="M21.828,93.058c-7.975-1.036-15.395-2.073-19.706-1.224-7.392-24.006,6.9-33.761,6.912-49.121C9.046,25.891,22.553,0,24.54,0H42.662c1,12.84,6.028,26.99,10.157,40.97,13.17,2.99,42.415-7.417,42.415-7.417s7.383,15.273,6.826,21.777C85.036,64.223,70.448,68.188,58.428,68.449c.382,7.132-.486,13.919-3.4,20.119-2.182,4.639-8.218,6.026-15.585,6.026A143.258,143.258,0,0,1,21.828,93.058Z" transform="translate(0 0)" fill="#2f3676"/>
    </g>
  </g>
</svg>
