<svg xmlns="http://www.w3.org/2000/svg" width="18.951" height="19.037" viewBox="0 0 18.951 19.037">
  <g id="salary_3_" data-name="salary (3)" transform="translate(-1.164 0)">
    <g id="Group_25749" data-name="Group 25749" transform="translate(1.164 0)">
      <g id="Group_25748" data-name="Group 25748" transform="translate(0 0)">
        <path id="Path_50194" data-name="Path 50194" d="M64.306,73.577H57.3a.279.279,0,1,0,0,.558h7.008a.279.279,0,1,0,0-.558Z" transform="translate(-54.942 -70.841)"/>
        <path id="Path_50195" data-name="Path 50195" d="M64.584,125.383a.279.279,0,0,0-.279-.279H57.3a.279.279,0,0,0,0,.558h7.008A.279.279,0,0,0,64.584,125.383Z" transform="translate(-54.942 -120.452)"/>
        <path id="Path_50196" data-name="Path 50196" d="M57.3,176.631a.279.279,0,1,0,0,.558h3.5a.279.279,0,1,0,0-.558Z" transform="translate(-54.942 -170.064)"/>
        <path id="Path_50197" data-name="Path 50197" d="M6.391,18.479H2.327a.606.606,0,0,1-.605-.605V1.163A.606.606,0,0,1,2.327.558c10.382,0,9.751-.006,9.844.007V2.9a.984.984,0,0,0,.983.983h2.332a.612.612,0,0,1,.007.087V5.583a.279.279,0,1,0,.558,0V3.967a1.154,1.154,0,0,0-.271-.746h0C15.757,3.194,12.941.365,12.83.271h0A1.154,1.154,0,0,0,12.084,0H2.327A1.164,1.164,0,0,0,1.164,1.163V17.874a1.164,1.164,0,0,0,1.163,1.163H6.391a.279.279,0,1,0,0-.558ZM12.729,2.9V.952l2.37,2.37H13.154A.426.426,0,0,1,12.729,2.9Z" transform="translate(-1.164 0)"/>
        <path id="Path_50198" data-name="Path 50198" d="M170.326,165.5l-.01-.017a1.225,1.225,0,0,0-1.048-.592h-.977a4.41,4.41,0,0,0-8.739,0h-.977a1.228,1.228,0,0,0-1.225,1.225V172.9a1.227,1.227,0,0,0,1.225,1.225h10.693a1.227,1.227,0,0,0,1.225-1.225v-6.789A1.217,1.217,0,0,0,170.326,165.5Zm-.391,7.4a.662.662,0,0,1-.062.28l-4.417-3.942,4.477-3.168C169.936,166.126,169.934,170.246,169.935,172.9Zm-.667-7.456a.663.663,0,0,1,.4.132l-1.483,1.049a4.43,4.43,0,0,0,.15-1.138c0-.015,0-.029,0-.044h.937Zm-5.347-3.809a3.857,3.857,0,0,1,3.853,3.853,3.808,3.808,0,0,1-.4,1.71l-2.345,1.66-.2-.178a1.36,1.36,0,0,0-.78-.34.279.279,0,0,0,.15-.247v-.3a1.255,1.255,0,0,0,.228-2.41c-.075-.027-.152-.054-.228-.083V164.06a.8.8,0,0,1,.309.151.279.279,0,0,0,.376-.412,1.391,1.391,0,0,0-.685-.308v-.248a.279.279,0,0,0-.558,0v.269c-.037.008-.074.018-.113.029a1.086,1.086,0,0,0-.436,1.818,2.576,2.576,0,0,0,.548.315v1.582a1.071,1.071,0,0,1-.566-.216.279.279,0,0,0-.305.467,1.615,1.615,0,0,0,.871.308v.278a.279.279,0,0,0,.15.247,1.36,1.36,0,0,0-.78.34l-.2.178-2.345-1.66a3.808,3.808,0,0,1-.4-1.71A3.857,3.857,0,0,1,163.921,161.639Zm.279,4.256.043.015a.69.69,0,0,1-.043,1.3Zm-.558-.841a1.545,1.545,0,0,1-.2-.132.535.535,0,0,1,.2-.828Zm-5.673,8.13a.662.662,0,0,1-.062-.28c0-2.658,0-6.777,0-6.83l4.477,3.168Zm1.542-7.736c0,.015,0,.029,0,.044a4.43,4.43,0,0,0,.15,1.138l-1.483-1.049a.663.663,0,0,1,.4-.132h.937Zm-.937,8.123a.664.664,0,0,1-.175-.024l4.985-4.448a.806.806,0,0,1,1.073,0l4.985,4.448a.664.664,0,0,1-.175.024Z" transform="translate(-151.542 -155.092)"/>
      </g>
    </g>
  </g>
</svg>
