<svg id="analytics_2_" data-name="analytics (2)" xmlns="http://www.w3.org/2000/svg" width="17.861" height="17.861" viewBox="0 0 17.861 17.861">
  <g id="Group_31113" data-name="Group 31113">
    <g id="Group_31112" data-name="Group 31112">
      <path id="Path_51669" data-name="Path 51669" d="M17.512,7.282H15.279a.349.349,0,0,0-.349.349V9.392a.349.349,0,1,0,.7,0V7.98h1.535v9.183H15.628V12.009a.349.349,0,1,0-.7,0v5.154h-.7V9.942a.349.349,0,0,0-.349-.349H11.651a.349.349,0,0,0-.349.349v7.221h-.7V12.384a.349.349,0,0,0-.349-.349H8.023a.349.349,0,0,0-.349.349v4.779h-.7V14.385a.349.349,0,0,0-.349-.349H4.4a.349.349,0,0,0-.349.349v2.778h-3A.349.349,0,0,1,.7,16.814V1.047A.349.349,0,0,1,1.047.7h9V3a1.048,1.048,0,0,0,1.047,1.047h2.3V8.337a.349.349,0,1,0,.7,0V3.7a.349.349,0,0,0-.1-.247L10.641.1a.349.349,0,0,0-.247-.1H1.047A1.048,1.048,0,0,0,0,1.047V16.814a1.048,1.048,0,0,0,1.047,1.047H17.512a.349.349,0,0,0,.349-.349V7.631A.349.349,0,0,0,17.512,7.282ZM10.743,1.191,12.9,3.349H11.092A.349.349,0,0,1,10.743,3ZM6.279,17.163H4.744V14.734H6.279Zm3.628,0H8.372v-4.43H9.907Zm3.628,0H12V10.291h1.535Z"/>
    </g>
  </g>
  <g id="Group_31115" data-name="Group 31115" transform="translate(14.93 10.287)">
    <g id="Group_31114" data-name="Group 31114">
      <path id="Path_51670" data-name="Path 51670" d="M428.6,294.992a.349.349,0,1,0,.1.247A.35.35,0,0,0,428.6,294.992Z" transform="translate(-428 -294.89)"/>
    </g>
  </g>
  <g id="Group_31117" data-name="Group 31117" transform="translate(1.87 1.909)">
    <g id="Group_31116" data-name="Group 31116">
      <path id="Path_51671" data-name="Path 51671" d="M56.81,54.729a.349.349,0,0,0-.349.349v.628A3.209,3.209,0,1,0,60,59.244h.627a.349.349,0,0,0,.349-.349A4.171,4.171,0,0,0,56.81,54.729Zm0,6.677a2.511,2.511,0,0,1-.349-5v2.487a.349.349,0,0,0,.349.349H59.3A2.515,2.515,0,0,1,56.81,61.406Zm.349-2.86h0v-3.1a3.475,3.475,0,0,1,3.1,3.1Z" transform="translate(-53.602 -54.729)"/>
    </g>
  </g>
  <g id="Group_31119" data-name="Group 31119" transform="translate(1.884 10.265)">
    <g id="Group_31118" data-name="Group 31118">
      <path id="Path_51672" data-name="Path 51672" d="M61.012,294.25H54.349a.349.349,0,0,0,0,.7h6.663a.349.349,0,0,0,0-.7Z" transform="translate(-54 -294.25)"/>
    </g>
  </g>
  <g id="Group_31121" data-name="Group 31121" transform="translate(1.884 11.948)">
    <g id="Group_31120" data-name="Group 31120">
      <path id="Path_51673" data-name="Path 51673" d="M56.581,342.5H54.349a.349.349,0,0,0,0,.7h2.233a.349.349,0,0,0,0-.7Z" transform="translate(-54 -342.5)"/>
    </g>
  </g>
  <g id="Group_31123" data-name="Group 31123" transform="translate(5.863 11.948)">
    <g id="Group_31122" data-name="Group 31122">
      <path id="Path_51674" data-name="Path 51674" d="M168.675,342.6a.349.349,0,1,0,.1.247A.352.352,0,0,0,168.675,342.6Z" transform="translate(-168.08 -342.5)"/>
    </g>
  </g>
</svg>
