<svg xmlns="http://www.w3.org/2000/svg" width="16.386" height="19.335" viewBox="0 0 16.386 19.335">
  <g id="shopping-bag_1_" data-name="shopping-bag (1)" transform="translate(-15.359)">
    <g id="Group_31095" data-name="Group 31095" transform="translate(21.237)">
      <g id="Group_31094" data-name="Group 31094">
        <path id="Path_51654" data-name="Path 51654" d="M81.664,2.389a2.786,2.786,0,0,0-5.008-1.245.328.328,0,1,0,.529.387,2.131,2.131,0,0,1,3.83.951.328.328,0,0,0,.324.281.351.351,0,0,0,.047,0A.328.328,0,0,0,81.664,2.389Z" transform="translate(-76.593)"/>
      </g>
    </g>
    <g id="Group_31097" data-name="Group 31097" transform="translate(16.014 4.26)">
      <g id="Group_31096" data-name="Group 31096" transform="translate(0)">
        <path id="Path_51655" data-name="Path 51655" d="M37.213,46.17l-.983-1.639a.327.327,0,0,0-.281-.159h-.942a.328.328,0,0,0,0,.655h.757l.59.983H23.091l.59-.983h.347a.328.328,0,0,0,0-.655H23.5a.327.327,0,0,0-.281.159l-.983,1.639a.328.328,0,0,0,.281.5H36.932a.328.328,0,0,0,.281-.5Z" transform="translate(-22.185 -44.372)"/>
      </g>
    </g>
    <g id="Group_31099" data-name="Group 31099" transform="translate(23.998 1.836)">
      <g id="Group_31098" data-name="Group 31098" transform="translate(0)">
        <path id="Path_51656" data-name="Path 51656" d="M110.754,20.326a.327.327,0,0,0-.2-.146l-4.467-1.045a.327.327,0,0,0-.394.244l-.337,1.44a.328.328,0,0,0,.638.149l.262-1.121,3.829.9-.6,2.573a.327.327,0,0,0,.244.394.331.331,0,0,0,.075.009.327.327,0,0,0,.319-.253l.676-2.892A.326.326,0,0,0,110.754,20.326Z" transform="translate(-105.343 -19.126)"/>
      </g>
    </g>
    <g id="Group_31101" data-name="Group 31101" transform="translate(17.292 0.996)">
      <g id="Group_31100" data-name="Group 31100" transform="translate(0)">
        <path id="Path_51657" data-name="Path 51657" d="M41.927,13.188l-.3-2.525a.328.328,0,0,0-.364-.287l-5.481.648a.328.328,0,0,0-.287.364l.5,4.212a.328.328,0,0,0,.325.289l.039,0a.328.328,0,0,0,.287-.364l-.459-3.887,4.83-.571.26,2.2a.328.328,0,0,0,.651-.077Z" transform="translate(-35.494 -10.374)"/>
      </g>
    </g>
    <g id="Group_31103" data-name="Group 31103" transform="translate(19.74 3.146)">
      <g id="Group_31102" data-name="Group 31102" transform="translate(0)">
        <path id="Path_51658" data-name="Path 51658" d="M67.573,35.725l-.65-2.7a.327.327,0,0,0-.4-.242l-5.279,1.27a.328.328,0,0,0-.242.4l.325,1.352a.328.328,0,1,0,.637-.153l-.249-1.033,4.642-1.116.574,2.386a.328.328,0,0,0,.637-.153Z" transform="translate(-60.997 -32.769)"/>
      </g>
    </g>
    <g id="Group_31105" data-name="Group 31105" transform="translate(15.359 5.899)">
      <g id="Group_31104" data-name="Group 31104" transform="translate(0)">
        <path id="Path_51659" data-name="Path 51659" d="M31.088,61.752a.328.328,0,0,0-.327-.311H16.342a.328.328,0,0,0-.327.311l-.655,12.781a.328.328,0,0,0,.327.344h15.73a.328.328,0,0,0,.328-.344ZM16.031,74.221,16.653,62.1h13.8l.622,12.125Z" transform="translate(-15.359 -61.441)"/>
      </g>
    </g>
    <g id="Group_31107" data-name="Group 31107" transform="translate(25.026 7.209)">
      <g id="Group_31106" data-name="Group 31106">
        <path id="Path_51660" data-name="Path 51660" d="M117.035,75.093a.983.983,0,1,0,.983.983A.984.984,0,0,0,117.035,75.093Zm0,1.311a.328.328,0,1,1,.328-.328A.328.328,0,0,1,117.035,76.4Z" transform="translate(-116.052 -75.093)"/>
      </g>
    </g>
    <g id="Group_31109" data-name="Group 31109" transform="translate(20.11 7.209)">
      <g id="Group_31108" data-name="Group 31108" transform="translate(0)">
        <path id="Path_51661" data-name="Path 51661" d="M65.835,75.093a.983.983,0,1,0,.983.983A.984.984,0,0,0,65.835,75.093Zm0,1.311a.328.328,0,1,1,.328-.328A.328.328,0,0,1,65.835,76.4Z" transform="translate(-64.852 -75.093)"/>
      </g>
    </g>
    <g id="Group_31111" data-name="Group 31111" transform="translate(20.766 8.193)">
      <g id="Group_31110" data-name="Group 31110" transform="translate(0)">
        <path id="Path_51662" data-name="Path 51662" d="M76.922,85.333H76.9a.328.328,0,0,0-.328.328.324.324,0,0,0,.025.126v1.676a2.13,2.13,0,0,1-4.26,0v-1.8a.328.328,0,0,0-.655,0v1.8a2.785,2.785,0,0,0,5.571,0v-1.8A.328.328,0,0,0,76.922,85.333Z" transform="translate(-71.679 -85.333)"/>
      </g>
    </g>
  </g>
</svg>
