<svg xmlns="http://www.w3.org/2000/svg" width="18.475" height="19.621" viewBox="0 0 18.475 19.621">
  <g id="tax_1_" data-name="tax (1)" transform="translate(-14.983 0)">
    <path id="Path_51665" data-name="Path 51665" d="M269.538,108.984a.3.3,0,0,0,.4-.076l3.447-5.078a.287.287,0,1,0-.475-.322l-3.447,5.078A.287.287,0,0,0,269.538,108.984Z" transform="translate(-244.698 -99.428)"/>
    <path id="Path_51666" data-name="Path 51666" d="M343.555,184.38a1.228,1.228,0,0,0,1.083-1.331c-.061-1.766-2.1-1.766-2.165,0A1.228,1.228,0,0,0,343.555,184.38Zm0-2.088c.276,0,.509.347.509.757s-.233.757-.509.757-.509-.347-.509-.757S343.279,182.292,343.555,182.292Z" transform="translate(-314.963 -174.774)"/>
    <path id="Path_51667" data-name="Path 51667" d="M246.032,104.714a1.228,1.228,0,0,0-1.083-1.331c-1.436.071-1.435,2.591,0,2.662A1.228,1.228,0,0,0,246.032,104.714Zm-1.592,0c0-.41.233-.757.509-.757s.509.347.509.757-.233.757-.509.757S244.44,105.124,244.44,104.714Z" transform="translate(-220.135 -99.429)"/>
    <path id="Path_51668" data-name="Path 51668" d="M24.666,13.232A6.772,6.772,0,0,0,31.1,1.646a.287.287,0,1,0-.374.435,6.2,6.2,0,0,1-6.058,10.546V10.678c0-.246-.149-.592-.857-.845a5.549,5.549,0,0,0-2.585-.195,6.2,6.2,0,0,1,8.182-8.427A.287.287,0,0,0,29.657.7a6.771,6.771,0,0,0-9.016,9.061c-.086.024-.168.049-.246.077-.709.253-.857.6-.857.845v1.909a4.642,4.642,0,0,0-1.987-.375.287.287,0,0,0,0,.574,4.678,4.678,0,0,1,1.512.222c.393.14.476.282.476.3s-.083.164-.477.3a4.81,4.81,0,0,1-3.028,0c-.394-.141-.477-.283-.477-.3s.1-.189.579-.339a.287.287,0,0,0-.171-.548c-.812.253-.982.622-.982.886V18.5c0,.246.149.592.857.845a5.385,5.385,0,0,0,3.414,0,1.872,1.872,0,0,0,.571-.3,1.872,1.872,0,0,0,.571.3,5.385,5.385,0,0,0,3.414,0,1.872,1.872,0,0,0,.571-.3,1.871,1.871,0,0,0,.571.3,5.385,5.385,0,0,0,3.414,0c.709-.253.857-.6.857-.845V15.905c0-.246-.149-.592-.857-.845a5.385,5.385,0,0,0-3.414,0,2.488,2.488,0,0,0-.284.12c0-.374,0-1.484,0-1.874,0-.01,0-.063,0-.075Zm3.981,3.97c0,.022-.083.164-.477.3a4.81,4.81,0,0,1-3.028,0c-.394-.141-.477-.283-.477-.3V16.63a2.5,2.5,0,0,0,.284.12,5.385,5.385,0,0,0,3.414,0,2.488,2.488,0,0,0,.284-.12Zm-4.555-5.227c0,.022-.083.164-.477.3a4.81,4.81,0,0,1-3.028,0c-.394-.141-.477-.283-.477-.3V11.4a2.5,2.5,0,0,0,.284.12,5.385,5.385,0,0,0,3.414,0,2.489,2.489,0,0,0,.284-.12Zm-3.7.845a5.231,5.231,0,0,0,3.7-.12v.592c0,.022-.083.164-.477.3a4.81,4.81,0,0,1-3.028,0c-.394-.141-.477-.283-.477-.3V12.7A2.493,2.493,0,0,0,20.4,12.819Zm-.857,3.086c0,.022-.083.164-.477.3a4.81,4.81,0,0,1-3.028,0c-.394-.141-.477-.283-.477-.3v-.572a2.5,2.5,0,0,0,.284.12,5.385,5.385,0,0,0,3.414,0,2.489,2.489,0,0,0,.284-.12Zm-3.981.725a2.5,2.5,0,0,0,.284.12,5.385,5.385,0,0,0,3.414,0,2.489,2.489,0,0,0,.284-.12V17.2c0,.022-.083.164-.477.3a4.81,4.81,0,0,1-3.028,0c-.394-.141-.477-.283-.477-.3Zm4.555,0a2.5,2.5,0,0,0,.284.12,5.385,5.385,0,0,0,3.414,0,2.489,2.489,0,0,0,.284-.12V17.2c0,.022-.083.164-.477.3a4.81,4.81,0,0,1-3.028,0c-.394-.141-.477-.283-.477-.3Zm3.5-.42a4.81,4.81,0,0,1-3.028,0c-.394-.141-.477-.283-.477-.3v-.572a2.5,2.5,0,0,0,.284.12,5.385,5.385,0,0,0,3.414,0,2.489,2.489,0,0,0,.284-.12v.572C24.093,15.927,24.01,16.069,23.616,16.21Zm.477-1.6c0,.022-.083.164-.477.3a4.81,4.81,0,0,1-3.028,0c-.394-.141-.477-.283-.477-.3v-.592a2.5,2.5,0,0,0,.284.12,5.385,5.385,0,0,0,3.414,0,2.489,2.489,0,0,0,.284-.12Zm-3.5-4.236a4.811,4.811,0,0,1,3.028,0c.394.141.477.283.477.3s-.083.164-.477.3a4.81,4.81,0,0,1-3.028,0c-.394-.141-.477-.283-.477-.3S20.194,10.514,20.588,10.373ZM15.84,14.157a5.231,5.231,0,0,0,3.7-.12v.572c0,.022-.083.164-.477.3a4.81,4.81,0,0,1-3.028,0c-.394-.141-.477-.283-.477-.3v-.572A2.49,2.49,0,0,0,15.84,14.157ZM19.061,18.8a4.81,4.81,0,0,1-3.028,0c-.394-.141-.477-.283-.477-.3v-.572a5.128,5.128,0,0,0,3.981,0V18.5C19.538,18.52,19.455,18.662,19.061,18.8Zm4.555,0a4.81,4.81,0,0,1-3.028,0c-.394-.141-.477-.283-.477-.3v-.572a5.128,5.128,0,0,0,3.981,0V18.5C24.093,18.52,24.01,18.662,23.616,18.8Zm4.555,0a4.81,4.81,0,0,1-3.028,0c-.394-.141-.477-.283-.477-.3v-.572a5.128,5.128,0,0,0,3.981,0V18.5C28.647,18.52,28.565,18.662,28.171,18.8Zm-3.028-3.2a4.81,4.81,0,0,1,3.028,0c.394.141.477.283.477.3s-.083.164-.477.3a4.81,4.81,0,0,1-3.028,0c-.394-.141-.477-.283-.477-.3S24.749,15.741,25.143,15.6Z" transform="translate(0)"/>
  </g>
</svg>
