<svg id="accounting_2_" data-name="accounting (2)" xmlns="http://www.w3.org/2000/svg" width="17.666" height="17.675" viewBox="0 0 17.666 17.675">
  <path id="Path_64026" data-name="Path 64026" d="M106.946,288a2.946,2.946,0,1,0,2.946,2.946A2.946,2.946,0,0,0,106.946,288Zm0,5.3a2.357,2.357,0,1,1,2.357-2.357A2.357,2.357,0,0,1,106.946,293.3Zm0,0" transform="translate(-100.17 -277.395)"/>
  <path id="Path_64027" data-name="Path 64027" d="M153.178,320.884c.36,0,.589.174.589.295h.589a.962.962,0,0,0-.884-.854V320h-.589v.324a.96.96,0,0,0-.884.854c0,.5.518.884,1.178.884.36,0,.589.174.589.295s-.229.295-.589.295-.589-.174-.589-.295H152a.962.962,0,0,0,.884.854v.324h.589v-.324a.96.96,0,0,0,.884-.854c0-.5-.518-.884-1.178-.884-.36,0-.589-.174-.589-.295S152.819,320.884,153.178,320.884Zm0,0" transform="translate(-146.403 -308.217)"/>
  <path id="Path_64028" data-name="Path 64028" d="M15.024,17.086H2.651v-7.07H7.365a.884.884,0,0,0,.884-.884V1.767h3.24V5.3h3.535V9.427h.589V4.886L11.905,1.178H8.248V.884A.884.884,0,0,0,7.365,0H.884A.884.884,0,0,0,0,.884V9.132a.884.884,0,0,0,.884.884H2.062v7.659H15.613V13.551h-.589Zm-2.946-14.9,2.529,2.529H12.078ZM.589,9.132V.884A.3.3,0,0,1,.884.589H7.365a.3.3,0,0,1,.295.295V9.132a.3.3,0,0,1-.295.295H.884A.3.3,0,0,1,.589,9.132Zm0,0"/>
  <path id="Path_64029" data-name="Path 64029" d="M256,200h.589v.589H256Zm0,0" transform="translate(-246.573 -192.635)"/>
  <path id="Path_64030" data-name="Path 64030" d="M288,200h3.535v.589H288Zm0,0" transform="translate(-277.395 -192.635)"/>
  <path id="Path_64031" data-name="Path 64031" d="M256,168h.589v.589H256Zm0,0" transform="translate(-246.573 -161.814)"/>
  <path id="Path_64032" data-name="Path 64032" d="M288,168h3.535v.589H288Zm0,0" transform="translate(-277.395 -161.814)"/>
  <path id="Path_64033" data-name="Path 64033" d="M256,232h.589v.589H256Zm0,0" transform="translate(-246.573 -223.457)"/>
  <path id="Path_64034" data-name="Path 64034" d="M288,232h3.535v.589H288Zm0,0" transform="translate(-277.395 -223.457)"/>
  <path id="Path_64035" data-name="Path 64035" d="M256,264h.589v.589H256Zm0,0" transform="translate(-246.573 -254.279)"/>
  <path id="Path_64036" data-name="Path 64036" d="M288,264h3.535v.589H288Zm0,0" transform="translate(-277.395 -254.279)"/>
  <path id="Path_64037" data-name="Path 64037" d="M30.481,24H24v2.062h6.481Zm-.589,1.473h-5.3v-.884h5.3Zm0,0" transform="translate(-23.116 -23.116)"/>
  <path id="Path_64038" data-name="Path 64038" d="M33.178,88h-.589a.589.589,0,0,0-.589.589v.589a.589.589,0,0,0,.589.589h.589a.589.589,0,0,0,.589-.589v-.589A.589.589,0,0,0,33.178,88Zm-.589,1.178v-.589h.589v.589Zm0,0" transform="translate(-30.822 -84.76)"/>
  <path id="Path_64039" data-name="Path 64039" d="M89.178,88h-.589a.589.589,0,0,0-.589.589v.589a.589.589,0,0,0,.589.589h.589a.589.589,0,0,0,.589-.589v-.589A.589.589,0,0,0,89.178,88Zm-.589,1.178v-.589h.589v.589Zm0,0" transform="translate(-84.76 -84.76)"/>
  <path id="Path_64040" data-name="Path 64040" d="M145.178,88h-.589a.589.589,0,0,0-.589.589v.589a.589.589,0,0,0,.589.589h.589a.589.589,0,0,0,.589-.589v-.589A.589.589,0,0,0,145.178,88Zm-.589,1.178v-.589h.589v.589Zm0,0" transform="translate(-138.698 -84.76)"/>
  <path id="Path_64041" data-name="Path 64041" d="M33.178,144h-.589a.589.589,0,0,0-.589.589v.589a.589.589,0,0,0,.589.589h.589a.589.589,0,0,0,.589-.589v-.589A.589.589,0,0,0,33.178,144Zm-.589,1.178v-.589h.589v.589Zm0,0" transform="translate(-30.822 -138.698)"/>
  <path id="Path_64042" data-name="Path 64042" d="M89.178,144h-.589a.589.589,0,0,0-.589.589v.589a.589.589,0,0,0,.589.589h.589a.589.589,0,0,0,.589-.589v-.589A.589.589,0,0,0,89.178,144Zm-.589,1.178v-.589h.589v.589Zm0,0" transform="translate(-84.76 -138.698)"/>
  <path id="Path_64043" data-name="Path 64043" d="M145.178,144h-.589a.589.589,0,0,0-.589.589v.589a.589.589,0,0,0,.589.589h.589a.589.589,0,0,0,.589-.589v-.589A.589.589,0,0,0,145.178,144Zm-.589,1.178v-.589h.589v.589Zm0,0" transform="translate(-138.698 -138.698)"/>
  <path id="Path_64044" data-name="Path 64044" d="M33.178,200h-.589a.589.589,0,0,0-.589.589v.589a.589.589,0,0,0,.589.589h.589a.589.589,0,0,0,.589-.589v-.589A.589.589,0,0,0,33.178,200Zm-.589,1.178v-.589h.589v.589Zm0,0" transform="translate(-30.822 -192.635)"/>
  <path id="Path_64045" data-name="Path 64045" d="M89.178,200h-.589a.589.589,0,0,0-.589.589v.589a.589.589,0,0,0,.589.589h.589a.589.589,0,0,0,.589-.589v-.589A.589.589,0,0,0,89.178,200Zm-.589,1.178v-.589h.589v.589Zm0,0" transform="translate(-84.76 -192.635)"/>
  <path id="Path_64046" data-name="Path 64046" d="M145.178,200h-.589a.589.589,0,0,0-.589.589v.589a.589.589,0,0,0,.589.589h.589a.589.589,0,0,0,.589-.589v-.589A.589.589,0,0,0,145.178,200Zm-.589,1.178v-.589h.589v.589Zm0,0" transform="translate(-138.698 -192.635)"/>
  <path id="Path_64047" data-name="Path 64047" d="M287.11,248.716a.9.9,0,0,0-1.25,0l-5.05,5.05a.3.3,0,0,0-.059.085l-.711,1.544a.295.295,0,0,0,.391.391l1.544-.711a.3.3,0,0,0,.085-.059l5.05-5.05A.884.884,0,0,0,287.11,248.716Zm-5.429,5.846-.772.356.356-.772,3.765-3.766.417.417Zm4.183-4.183-.417-.416.206-.206.417.417Zm.831-.831-.208.208-.417-.417.209-.208a.3.3,0,0,1,.416,0A.3.3,0,0,1,286.695,249.548Zm0,0" transform="translate(-269.703 -239.317)"/>
</svg>
