<svg xmlns="http://www.w3.org/2000/svg" width="18.742" height="19.124" viewBox="0 0 18.742 19.124">
  <g id="surface1" transform="translate(-0.089 -0.001)">
    <path id="Path_51663" data-name="Path 51663" d="M.441,5.284A.774.774,0,0,0,.428,5.4v.787a.78.78,0,0,0,.506.728V8.07a.728.728,0,0,0,.693.724v6.687a.728.728,0,0,0-.693.724v1.154a.789.789,0,0,0-.506.735v.77a.26.26,0,0,0,.26.26H18.219a.26.26,0,0,0,.26-.26V18.1a.788.788,0,0,0-.506-.735V16.2a.728.728,0,0,0-.693-.724V8.795a.728.728,0,0,0,.693-.724V6.913a.78.78,0,0,0,.506-.728V5.4a.757.757,0,0,0-.012-.114.259.259,0,0,0,.21-.473L9.573.031a.26.26,0,0,0-.243,0L.227,4.81a.26.26,0,0,0,.213.473Zm1.014,2.08v-.4h3v.4ZM8.13,8.8v6.686a.728.728,0,0,0-.693.724v1.106H4.969V16.206a.728.728,0,0,0-.693-.724V8.795a.728.728,0,0,0,.693-.724V6.963H7.433V8.069a.728.728,0,0,0,.693.726ZM7.956,7.363v-.4h3v.4ZM14.632,8.8v6.686a.728.728,0,0,0-.693.724v1.106H11.471V16.206a.728.728,0,0,0-.693-.724V8.795a.728.728,0,0,0,.693-.724V6.963h2.464V8.069a.728.728,0,0,0,.693.726Zm-.173-1.433v-.4h3v.4Zm3,9.552v.4h-3v-.4Zm-6.5,0v.4h-3v-.4ZM8.386,8.28H8.161a.208.208,0,0,1-.208-.208V7.883h3v.189a.208.208,0,0,1-.208.208Zm1.873.52v6.679H8.646V8.8ZM8.386,16h2.357a.208.208,0,0,1,.208.208V16.4h-3v-.189A.208.208,0,0,1,8.161,16Zm-3.937.917v.4h-3v-.4Zm-3-8.838V7.883h3v.189a.208.208,0,0,1-.208.208H1.654a.208.208,0,0,1-.2-.21Zm2.3.728v6.674H2.144V8.8Zm-2.3,7.407A.208.208,0,0,1,1.659,16H4.241a.208.208,0,0,1,.208.208V16.4h-3Zm16.508,1.894v.509H.945v-.509a.269.269,0,0,1,.269-.269H17.691a.269.269,0,0,1,.269.263Zm-.506-1.894V16.4h-3v-.189A.208.208,0,0,1,14.663,16H17.25a.208.208,0,0,1,.2.2Zm-2.3-.728V8.8h1.613v6.679Zm2.3-7.407a.208.208,0,0,1-.208.208h-2.58a.208.208,0,0,1-.208-.208V7.883h3Zm-8-7.526L17.193,4.62H1.711ZM.945,5.4a.26.26,0,0,1,.26-.26H17.7a.26.26,0,0,1,.26.26V6.19a.26.26,0,0,1-.26.26H1.2a.26.26,0,0,1-.26-.26Zm0,0" transform="translate(0)" fill="#1d2128"/>
  </g>
</svg>
