<svg xmlns="http://www.w3.org/2000/svg" width="18.475" height="20.231" viewBox="0 0 18.475 20.231">
  <g id="wedding-cost" transform="translate(-22.223 0)">
    <path id="Path_51664" data-name="Path 51664" d="M22.52,20.231a.3.3,0,0,1-.3-.3V18.784a.3.3,0,0,1,.593,0v.855h8.2a1.251,1.251,0,0,1-.189-.662V9.621a1.258,1.258,0,0,1,1.255-1.256h1.737V2.79a.3.3,0,1,1,.593,0V8.365h5.027A1.258,1.258,0,0,1,40.7,9.621v9.356a1.258,1.258,0,0,1-1.256,1.255H22.52Zm9.729-2.948h1.576a.3.3,0,0,1,.3.3v1.168a.3.3,0,0,1-.3.3H32.249a.3.3,0,0,1-.3-.3V17.579A.3.3,0,0,1,32.249,17.283Zm1.28.593h-.985v.576h.985v-.576Zm4.174-.593H39.28a.3.3,0,0,1,.3.3v1.168a.3.3,0,0,1-.3.3H37.7a.3.3,0,0,1-.3-.3V17.579A.3.3,0,0,1,37.7,17.283Zm1.28.593H38v.576h.983Zm-4.007-.593h1.576a.3.3,0,0,1,.3.3v1.168a.3.3,0,0,1-.3.3H34.977a.3.3,0,0,1-.3-.3V17.579A.3.3,0,0,1,34.977,17.283Zm1.279.593h-.983v.576h.983Zm-4.007-2.911h1.576a.3.3,0,0,1,.3.3v1.168a.3.3,0,0,1-.3.3H32.249a.3.3,0,0,1-.3-.3V15.26A.3.3,0,0,1,32.249,14.965Zm1.28.593h-.985v.575h.985v-.575Zm4.174-.593H39.28a.3.3,0,0,1,.3.3v1.168a.3.3,0,0,1-.3.3H37.7a.3.3,0,0,1-.3-.3V15.26A.3.3,0,0,1,37.7,14.965Zm1.28.593H38v.575h.983Zm-4.007-.593h1.576a.3.3,0,0,1,.3.3v1.168a.3.3,0,0,1-.3.3H34.977a.3.3,0,0,1-.3-.3V15.26A.3.3,0,0,1,34.977,14.965Zm1.279.593h-.983v.575h.983Zm-4.007-2.911h1.576a.3.3,0,0,1,.3.3V14.11a.3.3,0,0,1-.3.3H32.249a.3.3,0,0,1-.3-.3V12.942A.3.3,0,0,1,32.249,12.646Zm1.28.592h-.985v.575h.985v-.575Zm4.174-.592H39.28a.3.3,0,0,1,.3.3V14.11a.3.3,0,0,1-.3.3H37.7a.3.3,0,0,1-.3-.3V12.942A.3.3,0,0,1,37.7,12.646Zm1.28.592H38v.575h.983Zm-4.007-.592h1.576a.3.3,0,0,1,.3.3V14.11a.3.3,0,0,1-.3.3H34.977a.3.3,0,0,1-.3-.3V12.942A.3.3,0,0,1,34.977,12.646Zm1.279.592h-.983v.575h.983Zm-1.163-1.744a.3.3,0,1,1,0,.593H32.249a.3.3,0,0,1-.3-.3V9.823a.3.3,0,0,1,.3-.3H39.28a.3.3,0,0,1,.3.3v1.968a.3.3,0,0,1-.3.3H36.435a.3.3,0,0,1,0-.593h2.548V10.12H32.545v1.374Zm-7.763,5.5a.3.3,0,1,1,0-.593h2.454a.3.3,0,1,1,0,.593Zm0-2.685a.3.3,0,1,1,0-.593h2.454a.3.3,0,1,1,0,.593Zm0-2.685a.3.3,0,1,1,0-.593h2.454a.3.3,0,1,1,0,.593Zm0-2.685a.3.3,0,0,1,0-.594h2.454a.3.3,0,1,1,0,.594ZM23.795,16.9a.3.3,0,1,1,.419-.419l.423.423,1.056-1.056a.3.3,0,0,1,.419.419l-1.266,1.266a.3.3,0,0,1-.419,0Zm0-2.685a.3.3,0,1,1,.419-.419l.423.423,1.056-1.056a.3.3,0,0,1,.419.419L24.846,14.85a.3.3,0,0,1-.419,0Zm0-2.685a.3.3,0,1,1,.419-.419l.423.423,1.056-1.056a.3.3,0,0,1,.419.419l-1.266,1.266a.3.3,0,0,1-.419,0Zm0-2.685a.3.3,0,1,1,.419-.419l.423.423L25.693,7.8a.3.3,0,0,1,.419.419L24.846,9.481a.3.3,0,0,1-.419,0Zm5.741-7.142a2.118,2.118,0,1,1-1.216,3.853A2.118,2.118,0,1,1,27.1,1.706a2.093,2.093,0,0,1,.745.137,2.118,2.118,0,0,1,.47.248,2.108,2.108,0,0,1,1.216-.384ZM27.875,5.14a2.118,2.118,0,0,1,0-2.632A1.473,1.473,0,0,0,27.64,2.4,1.526,1.526,0,1,0,27.1,5.35a1.5,1.5,0,0,0,.539-.1A1.352,1.352,0,0,0,27.875,5.14Zm2.739-2.395a1.525,1.525,0,1,0,.447,1.079A1.522,1.522,0,0,0,30.614,2.745Zm1.472,16.893h7.357a.666.666,0,0,0,.663-.662V9.621a.666.666,0,0,0-.663-.663H32.086a.666.666,0,0,0-.662.663v9.356a.666.666,0,0,0,.662.662Zm-9.27-2.2a.3.3,0,0,1-.593,0V.3a.3.3,0,0,1,.3-.3h11.6a.3.3,0,0,1,.3.3v1.15a.3.3,0,1,1-.593,0V.593H22.816Z"/>
  </g>
</svg>
