<svg xmlns="http://www.w3.org/2000/svg" width="21.67" height="17.861" viewBox="0 0 21.67 17.861">
  <path id="box_1_" data-name="box (1)" d="M20.589,15.7h-.748V9.034a1.18,1.18,0,0,0-1.179-1.179h-3.43V5.424a.32.32,0,1,0-.64,0V7.855H11.712a1.175,1.175,0,0,0-.859.373,1.175,1.175,0,0,0-.859-.373H6.565V1.179A.539.539,0,0,1,7.1.64H8.553V1.813a.729.729,0,0,0,.728.729h2.491a.728.728,0,0,0,.727-.729V.64h1.556a.539.539,0,0,1,.539.539V3.92a.32.32,0,1,0,.64,0V1.179A1.18,1.18,0,0,0,14.055,0H7.1A1.18,1.18,0,0,0,5.925,1.179V7.855H3.044A1.18,1.18,0,0,0,1.865,9.034V15.7H1.079a1.08,1.08,0,0,0,0,2.161h19.51a1.08,1.08,0,0,0,0-2.161ZM11.859,1.813a.089.089,0,0,1-.087.088H9.281a.089.089,0,0,1-.088-.088V.64h2.666ZM13.8,8.5h2.666V9.668a.089.089,0,0,1-.088.087h-2.49a.089.089,0,0,1-.088-.087Zm-2.089,0h1.449V9.668a.728.728,0,0,0,.728.727h2.49a.728.728,0,0,0,.728-.727V8.5h1.556a.539.539,0,0,1,.539.538V15.7H11.173V9.034A.539.539,0,0,1,11.712,8.5Zm-6.578,0H7.8V9.668a.088.088,0,0,1-.087.087H5.221a.087.087,0,0,1-.087-.087ZM20.589,17.22H1.079a.44.44,0,0,1,0-.88h4.5a.32.32,0,0,0,0-.64H2.5V9.034A.539.539,0,0,1,3.044,8.5H4.494V9.668a.728.728,0,0,0,.726.727H7.712a.728.728,0,0,0,.726-.727V8.5H9.995a.539.539,0,0,1,.539.538V15.7H7.049a.32.32,0,0,0,0,.64H20.589a.44.44,0,1,1,0,.88Zm0,0"/>
</svg>
