<svg id="box" xmlns="http://www.w3.org/2000/svg" width="89" height="72.834" viewBox="0 0 89 72.834">
  <path id="Path_55812" data-name="Path 55812" d="M144.258,3.637V33.222l17.969,3.967,18.716-3.967V3.637A3.645,3.645,0,0,0,177.309,0H147.893A3.645,3.645,0,0,0,144.258,3.637Zm0,0" transform="translate(-119.182)" fill="#ffcc73" fill-rule="evenodd"/>
  <path id="Path_55813" data-name="Path 55813" d="M144.258,3.637V33.222h5.279V3.637A3.645,3.645,0,0,1,153.171,0h-5.279A3.645,3.645,0,0,0,144.258,3.637Zm0,0" transform="translate(-119.182)" fill="#f59556" fill-rule="evenodd"/>
  <path id="Path_55814" data-name="Path 55814" d="M209.964,8.042h10.543a1.731,1.731,0,0,0,1.721-1.727V0h-13.99V6.314A1.732,1.732,0,0,0,209.964,8.042Zm0,0" transform="translate(-172.041)" fill="#e8e8e8" fill-rule="evenodd"/>
  <path id="Path_55815" data-name="Path 55815" d="M45.41,194.755v29.585l17.969,3.967L82.1,224.339l3.223-15.814L82.1,194.755c-.457-1.951-1.635-3.637-3.635-3.637H49.044A3.645,3.645,0,0,0,45.41,194.755Zm0,0" transform="translate(-37.517 -157.896)" fill="#f59556" fill-rule="evenodd"/>
  <path id="Path_55816" data-name="Path 55816" d="M45.41,194.755v29.585c1.456-.041,3.233-.02,5.279-.046V194.755a3.646,3.646,0,0,1,3.635-3.637H49.044A3.645,3.645,0,0,0,45.41,194.755Zm0,0" transform="translate(-37.517 -157.896)" fill="#d65036" fill-rule="evenodd"/>
  <path id="Path_55817" data-name="Path 55817" d="M111.143,199.159h10.543a1.727,1.727,0,0,0,1.721-1.727v-6.314H109.422v6.314A1.727,1.727,0,0,0,111.143,199.159Zm0,0" transform="translate(-90.401 -157.896)" fill="#e8e8e8" fill-rule="evenodd"/>
  <path id="Path_55818" data-name="Path 55818" d="M256.453,194.755v29.585c3.848-.107,10.685,3.982,17.97,3.967,5.924-.011,11.909-4.08,18.716-4.059V194.755a3.645,3.645,0,0,0-3.634-3.637H260.087A3.645,3.645,0,0,0,256.453,194.755Zm0,0" transform="translate(-211.874 -157.896)" fill="#55b8e6" fill-rule="evenodd"/>
  <path id="Path_55819" data-name="Path 55819" d="M256.453,194.755v29.585l5.279-.046V194.755a3.645,3.645,0,0,1,3.634-3.637h-5.279A3.645,3.645,0,0,0,256.453,194.755Zm0,0" transform="translate(-211.874 -157.896)" fill="#507fcf" fill-rule="evenodd"/>
  <path id="Path_55820" data-name="Path 55820" d="M322.16,199.159H332.7a1.732,1.732,0,0,0,1.725-1.727v-6.314h-13.99v6.314A1.732,1.732,0,0,0,322.16,199.159Zm0,0" transform="translate(-264.733 -157.896)" fill="#e8e8e8" fill-rule="evenodd"/>
  <path id="Path_55821" data-name="Path 55821" d="M3.213,381.973a3.218,3.218,0,0,0,0,6.436H85.781a3.178,3.178,0,0,0,1.894-.62,3.218,3.218,0,0,0-1.894-5.816Zm0,0" transform="translate(0 -315.575)" fill="gray" fill-rule="evenodd"/>
  <path id="Path_55822" data-name="Path 55822" d="M3.213,381.973a3.218,3.218,0,0,0,0,6.436H9.172a3.218,3.218,0,0,1-.944-6.294.139.139,0,0,0,.035-.01,3.176,3.176,0,0,1,.909-.132Zm0,0" transform="translate(0 -315.575)" fill="#525252" fill-rule="evenodd"/>
</svg>
