<svg xmlns="http://www.w3.org/2000/svg" width="497.182" height="259.234" viewBox="0 0 497.182 259.234">
  <g id="Group_31072" data-name="Group 31072" transform="translate(-775.031 -331.869)">
    <g id="Scene_Home" data-name="Scene/Home" transform="translate(775.031 331.869)">
      <g id="Background_Shape_2" data-name="Background Shape 2" transform="translate(89.992 26.425)" opacity="0.346">
        <path id="Background_Shape" data-name="Background Shape" d="M-189.051,103.53c-4.141-46.274-226.315-135.587-267.56-91.757s-1.593,126.086,84.843,147.15S-184.911,149.8-189.051,103.53Z" transform="translate(473 0)" fill="#f2f2f2"/>
        <path id="Background_Shape-2" data-name="Background Shape" d="M.087,87.953C3.8,48.642,202.81-27.233,239.756,10s27.594,115.554-49.831,133.448S-3.622,127.264.087,87.953Z" transform="translate(146.541 45.644)" fill="#dde3e9"/>
      </g>
      <g id="Lamp" transform="translate(387.738 0)">
        <path id="Body" d="M0,15.88,11.151,4.724a4.8,4.8,0,0,1,6.8,0l29.688,29.7a9.609,9.609,0,0,1,2.813,6.793V237.952" transform="translate(35.574 4.681)" fill="none" stroke="#cbcbcb" stroke-miterlimit="10" stroke-width="8"/>
        <rect id="Lamp_Base" data-name="Lamp Base" width="35.308" height="3.783" rx="1.892" transform="translate(67.831 242.453)" fill="#afb9c5"/>
        <g id="Lamp_Top" data-name="Lamp Top" transform="translate(28.267) rotate(45)">
          <path id="Lamp-2" data-name="Lamp" d="M19.819,0h0A19.819,19.819,0,0,1,39.638,19.819V36.635a0,0,0,0,1,0,0H0a0,0,0,0,1,0,0V19.819A19.819,19.819,0,0,1,19.819,0Z" transform="translate(0 0)" fill="#c5cfd6"/>
          <ellipse id="Lamp-3" data-name="Lamp" cx="19.819" cy="3.904" rx="19.819" ry="3.904" transform="translate(0.107 32.168)" fill="#f2f2f2"/>
        </g>
      </g>
      <g id="Big_Leaf_Plant" data-name="Big Leaf Plant" transform="translate(0 115.326)">
        <g id="Big_Ass_Leaf" data-name="Big Ass Leaf" transform="translate(13.813 0)">
          <path id="leaf" d="M14.569.1a10.159,10.159,0,0,1,5.157.543c3.4,1.444,4.369,5.463,4.322,8.73-.05,3.516-.8,7.357,1.876,10.19,1.229,1.3,2.757,2.3,3.964,3.626a17.138,17.138,0,0,1,3.05,4.781c1.375,3.2,2.05,6.961.793,10.316-1.107,2.954-3.893,5.621-3.291,8.981.628,3.5,4.161,6.184,6.37,8.794,2.5,2.954,4.8,6.73,5.18,10.6a13.919,13.919,0,0,1-3.734,10.274c-4.955,5.608-12.4,8.357-19.915,8.34-3.189-.007-6.8-.151-9.551-1.865a5.263,5.263,0,0,1-1.8-1.95A6.358,6.358,0,0,0,5.24,79.72a10.36,10.36,0,0,1-3.324-4.44C-.809,68.534,1.369,60.188,5.184,54.2c.9-1.419,1.644-2.785,1.2-4.477a17.268,17.268,0,0,0-2.581-4.877A39.228,39.228,0,0,1,.93,40.291a10.333,10.333,0,0,1-.89-5.338A18.16,18.16,0,0,1,3.95,25.426c2.056-2.706,4.471-5.3,4.476-8.841.006-3.758-2.506-7.1-1.436-10.922A7.281,7.281,0,0,1,9.758,1.509,11.281,11.281,0,0,1,14.569.1Z" transform="translate(0 0)" fill="#dde3e9"/>
          <path id="middle_thing" data-name="middle thing" d="M.832.707a.866.866,0,0,1,1.1-.676c.62.173.608.753.592,1.27a17.063,17.063,0,0,0,.561,4.67c.793,3.2,2.259,6.153,3.42,9.229a16.8,16.8,0,0,1,1.024,9.5c-.642,3.066-1.65,6.053-2.306,9.123-.579,2.706-1.195,5.56-.313,8.259.848,2.6,2.723,4.714,4.073,7.062a33.3,33.3,0,0,1,4.2,15.8,29.547,29.547,0,0,1-.59,7.7c-.344,1.455-.806,3.422-2.053,4.426A1.424,1.424,0,0,1,8.5,77.011c-.454-.643-.056-1.64.088-2.326a35.251,35.251,0,0,0,.6-9.018,32.559,32.559,0,0,0-1.409-8.624,29.186,29.186,0,0,0-3.674-7.177C2.554,47.56.938,45.248.3,42.514a17.308,17.308,0,0,1,.586-8.325c.75-2.881,1.731-5.679,2.746-8.481a14.882,14.882,0,0,0,.794-8.173C3.344,11.888.456,6.587.832.707Z" transform="translate(12.612 5.405)" fill="#c5cfd6"/>
        </g>
        <g id="Big_Ass_Leaf-2" data-name="Big Ass Leaf" transform="translate(19.218 6.006)">
          <path id="leaf-2" data-name="leaf" d="M54.588.95a12.908,12.908,0,0,1,5.761,3.325c3.227,3.478,2.237,8.734.455,12.573-1.917,4.132-4.823,8.285-3.185,13.026.753,2.18,2.019,4.154,2.733,6.35a22.144,22.144,0,0,1,1.05,7.24c-.078,4.5-1.274,9.3-4.523,12.613C54.019,59,49.342,60.7,48.272,64.986,47.156,69.457,49.884,74.464,51.1,78.7c1.371,4.794,2.075,10.457.471,15.235-1.537,4.579-5.417,8.179-9.81,10.208-8.776,4.054-18.966,3.43-27.766-.5C10.255,101.979,6.1,99.93,3.774,96.472a6.765,6.765,0,0,1-1.086-3.245,8.163,8.163,0,0,0-1.124-2.974,13.357,13.357,0,0,1-1.553-6.98c.369-9.4,7.335-18.133,14.976-23.233,1.81-1.208,3.4-2.438,3.78-4.668a22.363,22.363,0,0,0-.449-7.11,50.692,50.692,0,0,1-.968-6.882A13.48,13.48,0,0,1,19.127,34.6a23.714,23.714,0,0,1,9.622-9.232c3.842-2.13,8.043-3.937,9.923-8.127,1.993-4.441.814-9.7,4.088-13.664A9.472,9.472,0,0,1,48.2.109,14.406,14.406,0,0,1,54.588.95Z" transform="translate(0 0)" fill="#dde3e9"/>
          <path id="middle_thing-2" data-name="middle thing" d="M31.021.487A1.1,1.1,0,0,1,32.663.265c.635.531.317,1.211.027,1.814A22.353,22.353,0,0,0,30.9,7.9c-.75,4.208-.581,8.47-.834,12.721A22,22,0,0,1,26.289,32.41c-2.356,3.295-5.1,6.3-7.475,9.6-2.094,2.9-4.309,5.958-4.692,9.616-.369,3.521.715,7.01,1.065,10.5a43.623,43.623,0,0,1-3.363,20.914A38.608,38.608,0,0,1,7.1,91.848c-1.164,1.543-2.735,3.629-4.719,4.166A1.812,1.812,0,0,1,.025,94.869c-.194-1,.794-1.971,1.321-2.708A46.071,46.071,0,0,0,6.772,81.8,42.665,42.665,0,0,0,9.641,70.846,38.169,38.169,0,0,0,9.1,60.422C8.495,56.875,7.816,53.29,8.5,49.716c.691-3.63,2.791-6.7,5.046-9.552,2.385-3.019,5-5.818,7.653-8.6A19.433,19.433,0,0,0,26.4,22.3C28.1,15.044,27.5,7.254,31.021.487Z" transform="translate(19.218 7.807)" fill="#c5cfd6"/>
        </g>
        <g id="Big_Ass_Leaf-3" data-name="Big Ass Leaf" transform="translate(0 33.632)">
          <path id="leaf-3" data-name="leaf" d="M7.991,0a11.429,11.429,0,0,1,8.8,4.539c2.51,3.117,3.017,6.924,4.037,10.639a9.5,9.5,0,0,0,2.908,4.94c1.391,1.142,3.156,1.371,4.82,1.929a11.249,11.249,0,0,1,7.073,7.081c1.294,4-.077,8.032.159,12.085.217,3.722,3.886,6.044,6.839,7.828,2.911,1.759,5.534,3.406,6.411,6.834.93,3.635,1.242,7.693-.046,11.284-2.144,5.979-8.42,8.612-14.483,9.02-5.5.37-12.422-.211-16.555-4.206a11.757,11.757,0,0,1-3.257-9.06A27.578,27.578,0,0,1,15.7,56.8a27.593,27.593,0,0,0,1.027-4.291c.384-3.894-3.215-4.642-6.279-5.712a14.943,14.943,0,0,1-8.514-7.5A14.286,14.286,0,0,1,.489,28.56a12.53,12.53,0,0,1,2.85-5.015c.585-.636,1.41-1.166,1.938-1.834a2.475,2.475,0,0,0,.216-2.163c-.786-3.375-3.233-6.169-4.108-9.538C.594,6.97,1.061,3.186,3.841,1.224A7.261,7.261,0,0,1,7.991,0Z" transform="translate(0 0)" fill="#c5cfd6"/>
          <path id="middle_thing-3" data-name="middle thing" d="M2,.385c3.752,4,4.772,9.419,5.071,14.675.168,2.947-.007,6.056.859,8.914.741,2.447,2.478,4.317,4.268,6.085,3.6,3.558,7.623,7.176,8.677,12.326.618,3.022.2,6.144,1.056,9.133a25.12,25.12,0,0,0,3.809,7.68c1.34,1.847,3.086,3.262,4.55,4.984.447.526,1.087,1.3.9,2.042-.216.869-1.323,1.144-2.108,1.008-1.831-.318-3.373-2.067-4.57-3.338a28.754,28.754,0,0,1-4.448-6.1,25.65,25.65,0,0,1-2.885-7.928c-.479-2.9-.241-5.92-1.335-8.7-1.842-4.682-6.309-7.444-9.539-11.093C2.287,25.521,2.887,19.862,3.3,14.269c.226-3.074.451-6.544-1.1-9.351C1.6,3.847.283,2.848.028,1.631-.205.515,1.069-.612,2,.385Z" transform="translate(10.81 8.408)" fill="#afb9c5"/>
        </g>
        <path id="Base" d="M0,0C0,22.857,3.73,34.833,23.423,34.833S46.845,22.857,46.845,0Z" transform="translate(16.816 108.104)" fill="#89c5cc"/>
      </g>
      <g id="Table" transform="translate(154.186 91.888)">
        <g id="Lamp-4" data-name="Lamp" transform="translate(13.28)">
          <rect id="Lamp_Base-2" data-name="Lamp Base" width="22.698" height="5.044" rx="2" transform="translate(13.201 86.253)" fill="#afb9c5"/>
          <path id="Lamp_Body" data-name="Lamp Body" d="M9.382,45.4a9.382,9.382,0,0,1,0-18.764H13.6A119.994,119.994,0,0,0,17.861,0h2.7a103.7,103.7,0,0,0,4.266,26.633h3.622a9.382,9.382,0,1,1,0,18.764Z" transform="translate(4.374 42.117)" fill="#dde3e9"/>
          <path id="Shade" d="M2.776,1.008S13.1,0,23.422,0,44.069,1.008,44.069,1.008l2.776,47.718s-11.711,1.121-23.422,1.121S0,48.727,0,48.727Z" fill="#c5cfd6"/>
        </g>
        <path id="Table-2" data-name="Table" d="M62.95,63.051V13.337H12.711V63.051H0V0H75.661V63.051Z" transform="translate(0 91.297)" fill="#f2f2f2"/>
      </g>
      <g id="Plant" transform="translate(395.04 76.874)">
        <g id="Succulents" transform="translate(7.852 0)">
          <path id="Thi_Succs_" data-name="Thi Succs!" d="M.229.125c5.3,12.606,14.323,21.364,19.1,34.471a74.432,74.432,0,0,1,4.084,24.88c.039,4.7-.043,9.406-.065,14.107-.021,4.585-.146,9.14-.535,13.7-.391,4.58-.829,9.1-1.022,13.713-.15,3.59-.219,7.766-1.436,11.041-.968,2.6-3.428,2.986-4.08-.173A25.252,25.252,0,0,1,16,106.34c.051-2.315.186-4.627.255-6.942.276-9.29-.082-18.581.105-27.874.183-9.08,1.35-18.15.058-27.169-1.066-7.448-3.776-13.844-6.889-19.975-3-5.9-6.256-11.655-8.28-18.365A32.335,32.335,0,0,1,0,.018Q.141-.048.229.125Z" transform="translate(1.802 0)" fill="#c1dee2"/>
          <path id="Thi_Succs_2" data-name="Thi Succs!" d="M.585.371A10.1,10.1,0,0,1,2.932,3.334c.883,1.361,1.921,2.59,2.8,3.952,1.841,2.84,3.458,5.854,5.136,8.809a57.694,57.694,0,0,1,6.8,18.075c1.242,6.724,1.576,13.665,2.1,20.49.552,7.233,1.109,14.52,1.182,21.781a77.8,77.8,0,0,1-.182,9.937c-.243,2.011-1.151,3.725-3.2,3.709-4.346-.034-6.386-4.848-7.239-8.8A74.128,74.128,0,0,1,9.028,63.357c.24-7.168,1.484-14.229,2.023-21.37.57-7.559.248-14.985-2.351-22.1C7.387,16.288,5.863,12.777,4.495,9.2A34.526,34.526,0,0,0,2.648,4.7,43.2,43.2,0,0,1,0,0Z" transform="translate(0 24.624)" fill="#89c5cc"/>
          <path id="Thi_Succs_3" data-name="Thi Succs!" d="M10.41.311,10.81,0A39.735,39.735,0,0,1,9.2,4.409,35.981,35.981,0,0,0,8.165,8.695c-.753,3.412-1.624,6.747-2.336,10.187-1.409,6.809-1.142,14.144-.218,21.7.873,7.136,2.253,14.26,2.91,21.395A98.226,98.226,0,0,1,8.78,79.637c-.353,3.834-1.511,8.411-4.667,8.024-1.486-.182-2.261-1.97-2.573-3.989-.5-3.242-.607-6.651-.8-9.875C.3,66.6.215,59.428.129,52.306c-.082-6.72-.306-13.572.143-20.122A61.671,61.671,0,0,1,4,14.912c1.02-2.769,1.992-5.6,3.138-8.241C7.683,5.406,8.355,4.287,8.9,3.023A7.808,7.808,0,0,1,10.41.311Z" transform="translate(40.239 9.609)" fill="#c1dee2"/>
          <path id="Thi_Succs_4" data-name="Thi Succs!" d="M.125.181C.7-.784,1.965,2.4,2.158,2.8q-.122-.3-.246-.6A26.482,26.482,0,0,1,4.745,8.248c.642,2.153,1.194,4.35,1.8,6.518,1.13,4.068,2.589,8.021,3.613,12.126a39.459,39.459,0,0,1,1.008,12.07,103.11,103.11,0,0,0-.112,12.965,37.757,37.757,0,0,0,1.264,5.941c.458,1.978.818,3.983,1.359,5.936.124-.255.14.6.14.661a4.1,4.1,0,0,1-.229,1.36,3.663,3.663,0,0,1-2.307,2.529c-2.076.593-4-1.3-4.673-3.289a54.567,54.567,0,0,1-1.947-9.03,42.57,42.57,0,0,1-.394-8.327C4.509,42.2,5.507,36.756,5.777,31.245c.294-6-.9-11.637-1.89-17.477A51.037,51.037,0,0,0,2.016,5.485,23.279,23.279,0,0,0,.629,2.439C.335,1.869-.259.851.125.181Z" transform="translate(1.802 45.644)" fill="#c1dee2"/>
          <path id="Thi_Succs_5" data-name="Thi Succs!" d="M6.157,21.439c-.238,6.873-.649,13.695-1.565,20.5-.935,6.94-2.009,13.857-2.909,20.8C.807,69.5-.111,76.374.011,83.231c.09,5.05-.747,13.594,4.862,16.086,5.681,2.524,6.9-8.255,7.272-11.813a133.251,133.251,0,0,0,.136-20.588c-.356-7.044-.951-14.053-1.688-21.071-.818-7.8-1.461-15.627-1.976-23.445-.255-3.867-.318-7.728-.247-11.6A28.974,28.974,0,0,0,7,0L6.8.148" transform="translate(12.612 15.014)" fill="#69a1ac"/>
          <path id="Thi_Succs_6" data-name="Thi Succs!" d="M7.257,3.577C6.235,5.065,5.205,6.539,4.24,8.115a23.935,23.935,0,0,0-3.757,9.99C-.5,26.546.289,35.662.479,44.36c.039,1.778-.186,3.5.515,5.193.635,1.534,1.823,2.7,2.955,2.7C6.373,52.236,6,46.3,6.007,43.689c.007-4.578-.506-9.2-.462-13.777a95.654,95.654,0,0,1,.977-13.38A77.087,77.087,0,0,1,9.447,4.09C9.625,3.548,10.905-.638,9.7.083" transform="translate(40.839 54.652)" fill="#89c5cc"/>
          <path id="Thi_Succs_7" data-name="Thi Succs!" d="M8.566,0C6.972,0,6.982,7.943,6.934,8.963c-.173,3.682-.132,7.365-.242,11.047A200.257,200.257,0,0,1,4.951,44.1c-.65,4.276-1.4,8.534-2.214,12.778S.833,65.383.3,69.693A89.761,89.761,0,0,0,.145,82.225,109.709,109.709,0,0,0,.891,94.764c.135,1.025.294,2.046.464,3.065a24.3,24.3,0,0,0,.3,2.708c.384,1.292,2.03,1.715,3.138,1.513,3-.547,4.914-4.312,5.938-7.063a66.127,66.127,0,0,0,2.687-11.024A96.351,96.351,0,0,0,14.86,71.242a214.056,214.056,0,0,0-.744-26.013c-.346-4.81-.745-9.6-1.356-14.38-.609-4.76-1.389-9.5-1.9-14.273-.369-3.469-.733-6.943-.973-10.426C9.832,5.32,9.784,0,8.566,0" transform="translate(28.828 13.213)" fill="#69a1ac"/>
          <path id="Thi_Succs_8" data-name="Thi Succs!" d="M16.18,70.951c-.26-8.34-3.612-44.971-4.375-55.056C11.615,13.371,9.778,2.862,9.54,0c-.646.809-.591,13.4-.584,16.291.008,2.862-.347,5.676-.53,8.522-.186,2.9-4.479,40.41-5.037,43.2C2.282,73.565,1.54,79.262.968,84.938.41,90.47-.456,96.307.289,101.869a17,17,0,0,0,.884,3.716c.477,1.271.8,2.446,1.187,3.776a7.679,7.679,0,0,0,3.445,4.906c3.513,1.813,5.4-2.291,6.356-5.865a95.624,95.624,0,0,0,2.967-17.5c.508-6.631,1.259-13.275,1.051-19.951" transform="translate(19.218)" fill="#89c5cc"/>
        </g>
        <g id="Planter" transform="translate(0 94.962)">
          <rect id="Vase" width="54.224" height="55.485" rx="2" transform="translate(6.305 0)" fill="#fff"/>
          <rect id="Leg" width="6.305" height="68.095" rx="2" transform="translate(0 6.305)" fill="#c5cfd6"/>
          <rect id="Leg-2" data-name="Leg" width="6.305" height="68.095" rx="2" transform="translate(30.264 6.305)" fill="#c5cfd6"/>
          <rect id="Leg-3" data-name="Leg" width="6.305" height="68.095" rx="2" transform="translate(60.529 6.305)" fill="#c5cfd6"/>
        </g>
      </g>
      <g id="Bottom_Sitting_Skinny_Jeans_1" data-name="Bottom/Sitting/Skinny Jeans 1" transform="translate(277.853 157.036)">
        <g id="Seat" transform="translate(68.575 23.84)">
          <g id="Seat-2" data-name="Seat" transform="translate(0)">
            <path id="Seat_Stuff" data-name="Seat Stuff" d="M49.6,0H5.746L0,70.385H65.276Z" fill="#c5cfd6"/>
            <path id="Seat_Stuff-2" data-name="Seat Stuff" d="M21.559,0H8.072L0,70.385H37.238Z" transform="translate(28.038)" fill="rgba(0,0,0,0.1)"/>
          </g>
        </g>
        <path id="Skin" d="M32.429,3.039c-.568,7.181-1.624,32.039-.568,43.545.446,4.857.927,9.477,1.4,13.581-10.137-18.23-26.723-44.9-26.723-44.9L0,18.254s7.7,25.369,12.628,35.82C18.253,66,23.527,76.22,25.747,79.818c3.492,5.66,9.57,3.685,12.782.259,4.675,2.807,12.519-.8,12.514-4.815C51.026,63.249,40.062,6.63,39.49,3.051A3.887,3.887,0,0,0,35.589,0,3.032,3.032,0,0,0,32.429,3.039Z" transform="translate(62.856 91.859) rotate(180)" fill="#b28b67"/>
        <path id="LegLower" d="M0,0,2.9,57.619c2.094,9.963,19.814,5.339,19.806,0-.017-12.122-7.3-54-7.3-57.607Z" transform="translate(62.388 64.212) rotate(160)" fill="#1f28cf"/>
        <g id="Right_Shoe" data-name="Right Shoe" transform="translate(68.602 76.952) rotate(150)">
          <path id="shoe" d="M2.539,9.063A1.135,1.135,0,0,1,1.083,8.3L0,4.481A36.465,36.465,0,0,1,.512,0H32.526s1.248,4.126-1.441,4.455-4.467.594-4.467.594l-14.88,6.634a.568.568,0,0,1-.756-.3l-.956-2.32A12.865,12.865,0,0,0,5.981,7.9Z" transform="translate(0 0)" fill="#e4e4e4"/>
        </g>
        <g id="Right_Shoe-2" data-name="Right Shoe" transform="translate(0 82.493)">
          <path id="shoe-2" data-name="shoe" d="M30.276,3a1.135,1.135,0,0,1,1.456.765l1.083,3.817a36.465,36.465,0,0,1-.512,4.481H.289S-.959,7.938,1.73,7.609,6.2,7.015,6.2,7.015L21.077.381a.568.568,0,0,1,.756.3L22.789,3a12.865,12.865,0,0,0,4.045,1.161Z" transform="translate(0 -0.332)" fill="#e4e4e4"/>
        </g>
        <path id="Leg_and_Butt" data-name="Leg and Butt" d="M0,20.68C0,35.76,7.161,70.935,7.166,74.256l15.408.012s-3.383-47.08-2.4-47.587,40.33,3.928,52.13,3.928C89.322,30.609,96.361,19.878,96.932,0H63.224C56.36.734,20.56,7.955,7.265,10.438,1.573,11.5,0,16.526,0,20.68Z" transform="translate(10.241 0)" fill="#2b44ff"/>
      </g>
    </g>
    <g id="A_Human_Standing" data-name="A Human/Standing" transform="translate(1071.999 374.767)">
      <g id="Head_Front" data-name="Head/Front" transform="translate(50.933 0)">
        <g id="Head" transform="translate(4.42 10.734)">
          <path id="Head-2" data-name="Head" d="M0,0,5.217,24.316c-2.909,3.415-4.879,7.6-4.55,12.29.948,13.513,19.758,10.54,23.417,3.72s3.224-24.119-1.5-25.338c-1.886-.486-5.9.7-9.992,3.169L15.154,0Z" transform="translate(26.52 46.094) rotate(180)" fill="#b28b67"/>
        </g>
        <path id="hair" d="M.142,7.047a3.278,3.278,0,0,1,2.3-2.328,3.024,3.024,0,0,1,.845-.084c.1,0,.13.033.178-.038a.934.934,0,0,0,.051-.244,4.6,4.6,0,0,1,.171-.569A4.644,4.644,0,0,1,4.8,2.12,5.638,5.638,0,0,1,8.188.518,4.937,4.937,0,0,1,10.224.8a8.062,8.062,0,0,1,.988.423c.1.048.409.285.506.27s.322-.283.409-.349A5.985,5.985,0,0,1,15.866,0a6.844,6.844,0,0,1,4.224,1.007,8.448,8.448,0,0,1,.762.633c.127.118.251.241.368.369q.106.116.207.237c.113.137.095.183.253.087A3.14,3.14,0,0,1,23.7,1.88a4.512,4.512,0,0,1,1.217.344c.132.057.438.282.579.284s.441-.207.585-.26a4.8,4.8,0,0,1,2.433-.225A6.281,6.281,0,0,1,30.9,2.96a3.206,3.206,0,0,1,.884.8c.1.144.2.3.316.428.069.078.206.158.243.256A5.238,5.238,0,0,1,33.349,4a2.49,2.49,0,0,1,1.422.054A5.656,5.656,0,0,1,37.015,5.65a6.368,6.368,0,0,1,.83,1.115q.169.287.311.59a2.194,2.194,0,0,0,.136.307c.078.113.13.115.271.165a4.376,4.376,0,0,1,1.864,1.248,4.3,4.3,0,0,1,.965,2.046,1.042,1.042,0,0,0,.039.252c.036.033.179.018.234.025a4.916,4.916,0,0,1,.56.1,4.623,4.623,0,0,1,.985.354,5.145,5.145,0,0,1,2.522,3.012,6.11,6.11,0,0,1-.1,4.183,4.087,4.087,0,0,1-.311.613c-.074.12-.1.12-.05.245s.152.275.216.411a5.905,5.905,0,0,1,.446,1.4,6.559,6.559,0,0,1,.077,2.417,3.49,3.49,0,0,1-.373,1.061,3.042,3.042,0,0,1-.327.475c-.064.077-.133.15-.2.22a1.36,1.36,0,0,0-.129.12c-.085.109-.1.019-.059.179a7.155,7.155,0,0,0,.284.662c.087.224.166.451.239.681a10.044,10.044,0,0,1,.347,1.419,4.456,4.456,0,0,1-.315,2.756,2.757,2.757,0,0,1-.78.928,2.894,2.894,0,0,1-.512.311c-.093.044-.212.063-.254.153s.022.288.038.4a6.609,6.609,0,0,1-.078,2.847,3.934,3.934,0,0,1-1.559,2.093,4.851,4.851,0,0,1-4.849.138,5.091,5.091,0,0,1-1.083-.744c-.83,1.118-2.539,1.083-3.753.764a5.391,5.391,0,0,1-3.425-2.83,2.282,2.282,0,0,1-3.625-.476,3.02,3.02,0,0,1-.306-.994c-.025-.181-.009-.364-.028-.544A2.809,2.809,0,0,0,25,33.07a3.716,3.716,0,0,1-.282-1.342,6.812,6.812,0,0,1,.051-.72,2.476,2.476,0,0,0-.074-.633,2.9,2.9,0,0,0,1.226-.153,2.42,2.42,0,0,0,.947-.666,5.529,5.529,0,0,0,1.192-2.229c.539-1.765.318-3.883-1.457-4.851a9.147,9.147,0,0,0-4.29-.227c-1.036.234-2.21,2.52-2.268,2.735-.036.133-.018.3-.14.386-.268.195-.711-.143-.909-.31A3.585,3.585,0,0,1,18.2,24a13.105,13.105,0,0,1-1.092-2.679c-.2-.714-.331-1.45-.595-2.146a3.283,3.283,0,0,0-1.32-1.7,11.624,11.624,0,0,0-2.271-.919,5.637,5.637,0,0,1-2.1-1.154,2.9,2.9,0,0,1-.36-.4c-.082-.115-.164-.336-.29-.409-.2-.114-.481.182-.65.289a7.508,7.508,0,0,0-2.09,2.075,12.911,12.911,0,0,0-1.388,2.47,7.143,7.143,0,0,1-.933,2.06,3.938,3.938,0,0,1-2.349.178,2.967,2.967,0,0,1-1.281-1.109,1.723,1.723,0,0,1-.145-1.129c.045-.228.137-.44.187-.664a2.071,2.071,0,0,1,.172-.538,1.326,1.326,0,0,1,.827-.659,3.881,3.881,0,0,1-.893-1.211,5.2,5.2,0,0,1-.462-1.577,1.915,1.915,0,0,1,.256-1.229,3.235,3.235,0,0,1,1.049-.871,6.824,6.824,0,0,1-1.46-1.59A4.965,4.965,0,0,1,.142,7.047Z" transform="translate(0 0)" fill="#191847"/>
      </g>
      <g id="Body_Long_Sleeve_1" data-name="Body/Long Sleeve 1" transform="translate(0 42.937)">
        <path id="Skin-2" data-name="Skin" d="M.775,1.365C.07,1.8-.7,3.436,1.163,4.715,5.809,7.9,12.5,13.476,13.409,15.311c1.85,3.753,8.151,40.34,8.151,40.34L34.755,55.6S22.534,16.148,21.56,13.735C20.1,10.113,23.191,4.6,24.513,1.635,22.429.7,21.461,1.893,20.4,3.084c-1.13,1.269-2.365,2.538-5.167,1.234C11.647,2.649,8.681,0,5.146,0A8.2,8.2,0,0,0,.775,1.365Zm112.837,35.5-18.6,10.966,5.941,10.28,17.887-17.45a54.213,54.213,0,0,0,12.793-7.354c.748-.9,1.562-2.629-1.955-1.857s-7.252,1.428-7.913.285,1.287-2.9.065-4.394a.462.462,0,0,0-.375-.179Q119.771,27.164,113.612,36.867Z" transform="translate(132.284 114.386) rotate(180)" fill="#b28b67"/>
        <path id="Coat_Back" data-name="Coat Back" d="M0,81.032l5.358,1.409Q22.474,48.58,59.985,22.965L44.227,0C18.513,25.181,1.674,52.008,0,81.032Z" transform="matrix(-0.996, 0.087, -0.087, -0.996, 80.288, 84.091)" fill="#191847"/>
        <path id="Shirt" d="M48.619,71.982H0S16.9,30.9,16.9,2.185L31.562,0C43.088,18.538,46.343,41.361,48.619,71.982Z" transform="translate(48.408 0)" fill="#dde3e9"/>
        <path id="Shade-2" data-name="Shade" d="M8.905,0H.039a161.321,161.321,0,0,0,2.4,31.254A169.8,169.8,0,0,1,4.577,13.773C5.732,7.517,7.188,2.883,8.9,0Z" transform="translate(95.83 85.242) rotate(180)" fill="rgba(0,0,0,0.1)"/>
        <path id="Coat_Front" data-name="Coat Front" d="M0,0C5.317,59.988,38.835,92.819,38.835,92.819l.011-.01.006.01h.958c1.718-.059,5.234-.213,5.234-.213l3.544-10.128c.563-18.521,6.568-74.652,6.568-74.652H23.331Q23.412,3.966,23.7,0Z" transform="translate(119.127 92.819) rotate(180)" fill="#2f3676"/>
        <path id="Light" d="M15.716,7.306,0,0V7.306Z" transform="translate(73.033 58.362)" fill="rgba(255,255,255,0.2)"/>
      </g>
    </g>
    <g id="A_Human_Standing-2" data-name="A Human/Standing" transform="translate(866.435 374.767)">
      <g id="Head_Front-2" data-name="Head/Front" transform="translate(34.563 0)">
        <g id="Head-3" data-name="Head" transform="translate(10.756 10.424)">
          <path id="Head-4" data-name="Head" d="M0,46.283,5.2,21.867C2.3,18.438.337,14.235.665,9.526,1.611-4.042,20.37-1.057,24.019,5.791s3.216,24.219-1.5,25.443c-1.881.488-5.887-.707-9.965-3.182l2.56,18.232Z" transform="translate(0 0)" fill="#b28b67"/>
        </g>
        <path id="hair-2" data-name="hair" d="M-61.14,15.3a4.8,4.8,0,0,1-1-1.86,18.811,18.811,0,0,1-.641-2.112,4.652,4.652,0,0,1,.7-4.213,4.831,4.831,0,0,1,3.2-1.386,5.88,5.88,0,0,1,2.269.288c.723.238,1.346.711,2.046,1a9.156,9.156,0,0,1,1.08-4.5A4.486,4.486,0,0,1-50.145.342a6.623,6.623,0,0,1,4.069.819c.316.171.63.35.93.553a2.606,2.606,0,0,0,.807.444c.328.077.491-.113.7-.352a5.356,5.356,0,0,1,.831-.748A4.894,4.894,0,0,1-38.224.27a4.256,4.256,0,0,1,1.867,1.35c.426.559.73,1.445,1.318,1.835.249.165.426-.054.653-.216.341-.243.667-.511,1.012-.748A4.635,4.635,0,0,1-31.8,1.78c.823-.19,1.961-.146,2.2.933a4.451,4.451,0,0,1-.008,1.246c-.039.56-.08,1.121-.129,1.68a12.133,12.133,0,0,1-.164,1.252,1.833,1.833,0,0,0-.081.86c.119.278.669.12.9.13a3.573,3.573,0,0,1,1.359.3,1.463,1.463,0,0,1,.823.761,1.367,1.367,0,0,1,.023.716,2.135,2.135,0,0,0,.044.734c.623-.307,2.784-.989,3.056.128a1.748,1.748,0,0,1-.273,1.106,9.587,9.587,0,0,1-1.007,1.533,13.7,13.7,0,0,1-2.682,2.6,1.758,1.758,0,0,1,.459,2.944,2.178,2.178,0,0,1-1.6.464,3.536,3.536,0,0,0-.661-.052,1.581,1.581,0,0,1-.3.1,8.915,8.915,0,0,1-2.453-.311,8.088,8.088,0,0,1-3.741-1.956,1.153,1.153,0,0,0-.865-.4c-.322,0-.637.091-.959.1a6.907,6.907,0,0,1-2.407-.671,9.082,9.082,0,0,1-.789,3.2c-.356.783-1.1.9-1.829.965-2.335.22-4.679-.025-7.017-.022,2.263.512,4.6.722,6.846,1.325,1.014.272.24.956-.194,1.429a8.237,8.237,0,0,0-1.613,2.765,4.879,4.879,0,0,0-4.8-1.951,3.424,3.424,0,0,0-2.04,4.943A6.333,6.333,0,0,0-48.636,30.6c-.834.867-1.035,2.147-1.537,3.225a2.308,2.308,0,0,1-1.148,1.318,1.343,1.343,0,0,0-.606.241c-.2.207-.248.438-.5.615a2.838,2.838,0,0,1-3.517-.271,2.3,2.3,0,0,1,.078-3.009c-1.087-.453-3.066-1.036-2.635-2.728-2.355-.156-8.072-3.975-4.911-6.766-1.734-.98-3.328-3.376-2.214-5.488A5.368,5.368,0,0,1-61.14,15.3" transform="translate(66 0)" fill="#191847"/>
      </g>
      <g id="Bottom_Skinny_Jeans_1" data-name="Bottom/Skinny Jeans 1" transform="translate(0 110.089)">
        <g id="Seat-3" data-name="Seat" transform="translate(0 26.882)">
          <g id="Seat-4" data-name="Seat">
            <path id="Seat_Stuff-3" data-name="Seat Stuff" d="M17.68,0H67.127l6.479,79.366H0Z" fill="#c5cfd6"/>
            <path id="Seat_Stuff-4" data-name="Seat Stuff" d="M17.68,0H32.888l9.1,79.366H0Z" fill="rgba(0,0,0,0.1)"/>
          </g>
        </g>
        <path id="Skin-3" data-name="Skin" d="M36.567,90.6c-.641-8.1-1.831-36.127-.64-49.1.5-5.477,1.045-10.687,1.578-15.314C26.074,46.738,7.371,76.81,7.371,76.81L0,73.441S8.683,44.835,14.239,33.051C20.582,19.6,26.529,8.079,29.032,4.022,32.969-2.361,39.823-.134,43.445,3.73c5.272-3.166,14.117.9,14.111,5.429-.018,13.546-12.381,77.391-13.026,81.426a4.383,4.383,0,0,1-4.4,3.44A3.419,3.419,0,0,1,36.567,90.6Z" transform="translate(80.055 9.555)" fill="#b28b67"/>
        <path id="LegLower-2" data-name="LegLower" d="M0,71.584,3.275,6.612c2.361-11.235,22.342-6.021,22.334,0C25.591,20.281,17.38,67.5,17.374,71.571Z" transform="translate(105.065 5.139) rotate(20)" fill="#2f3676"/>
        <g id="Right_Shoe-3" data-name="Right Shoe" transform="translate(80.19 75.316) rotate(30)">
          <path id="shoe-3" data-name="shoe" d="M2.863,3.009a1.28,1.28,0,0,0-1.642.863L0,8.176a41.118,41.118,0,0,0,.577,5.053h36.1s1.407-4.652-1.625-5.023-5.037-.67-5.037-.67L13.236.056A.64.64,0,0,0,12.384.4L11.305,3.013a14.507,14.507,0,0,1-4.561,1.31Z" transform="translate(0 0)" fill="#e4e4e4"/>
        </g>
        <g id="Right_Shoe-4" data-name="Right Shoe" transform="translate(113.929 93.02)">
          <path id="shoe-4" data-name="shoe" d="M2.863,3.341A1.28,1.28,0,0,0,1.221,4.2L0,8.508a41.118,41.118,0,0,0,.577,5.053h36.1s1.407-4.652-1.625-5.023-5.037-.67-5.037-.67L13.236.388a.64.64,0,0,0-.852.341L11.305,3.345a14.507,14.507,0,0,1-4.561,1.31Z" transform="translate(0 -0.332)" fill="#e4e4e4"/>
        </g>
        <path id="Leg_and_Butt-2" data-name="Leg and Butt" d="M109.3,23.319c0,17-8.075,56.668-8.08,60.412l-17.375.013s3.815-53.088,2.705-53.66-45.476,4.43-58.782,4.43C8.582,34.515.644,22.415,0,0H38.01c7.739.828,48.108,8.97,63.1,11.77C107.528,12.968,109.3,18.635,109.3,23.319Z" transform="translate(30.082 0)" fill="#5c63ab"/>
      </g>
      <g id="Body_Long_Sleeve_1-2" data-name="Body/Long Sleeve 1" transform="translate(21.905 42.883)">
        <path id="Skin-4" data-name="Skin" d="M34.794,32.932l9.759-5.361s2.054-7.815,4.91-7.864c.737-.343.456,1.158.35,2.658-.1,1.478-.038,2.956,1.338,2.673,2.773-.571,9.542-5.6,10.708-4.583,1.725,1.513.187,6.156-1.626,8.465-3.388,4.317-6.193,5.793-13.126,7.726-5.437,1.516-11.758,6.078-11.758,6.078ZM0,22.665,22.216,10.5A54.96,54.96,0,0,1,33.136.276c1.1-.457,3.012-.734,1.22,2.446s-3.533,6.606-2.621,7.586c.4.43,1.065.407,1.777.384a2.545,2.545,0,0,1,2.5.855q1.09,1.628-11.667,5.144L8.2,31.471Z" transform="translate(52.109 4.665)" fill="#997659"/>
        <path id="Sleeve" d="M3.523,4.073A54.587,54.587,0,0,0,33.763,0l2.778,10.258C27.812,16.549,16.231,21.019,7,19.29A8.483,8.483,0,0,1,3.523,4.073Z" transform="translate(37.173 21.148) rotate(-9)" fill="#e87613"/>
        <path id="Clothes" d="M21.391,91.194C13.576,90.179,6.3,89.163,2.08,89.995-5.164,66.47,8.842,56.91,8.853,41.857,8.865,25.373,22.1,0,24.049,0H41.808c.979,12.583,5.907,26.45,9.953,40.15,12.906,2.93,41.565-7.268,41.565-7.268s7.235,14.967,6.689,21.341c-16.682,8.714-30.978,12.6-42.758,12.855.374,6.989-.477,13.64-3.334,19.716C51.786,91.341,45.87,92.7,38.651,92.7A140.393,140.393,0,0,1,21.391,91.194Z" transform="translate(0 0)" fill="#ff9b21"/>
      </g>
    </g>
  </g>
</svg>
