<svg xmlns="http://www.w3.org/2000/svg" width="69.219" height="78.5" viewBox="0 0 69.219 78.5">
  <g id="programmer" transform="translate(-30.266 0)">
    <path id="Path_55791" data-name="Path 55791" d="M86.139,309.04c-.055-.278-3.427-17.216-3.464-17.39a6.565,6.565,0,0,0-3.112-4.43,7.473,7.473,0,0,0-2.139-.867l-11.5-4.018a1.679,1.679,0,0,1-1.134-1.588v-3.521a14.444,14.444,0,0,1-13.121.063v3.458a1.679,1.679,0,0,1-1.134,1.588l-4.726,1.621h0l-6.762,2.4-.89.262a6.8,6.8,0,0,0-3.785,3.332c-.541,1.1-.381.712-3.006,13.892-.972,5.034-1.187,5.4-1.065,6.526.338,3.144,3.572,2.816,3.66,2.854H82.508A3.33,3.33,0,0,0,86.139,309.04Z" transform="translate(0 -234.72)" fill="#6c7d87"/>
    <path id="Path_55792" data-name="Path 55792" d="M34.277,356.394l3.464-18.97a6.612,6.612,0,0,1,2.861-4.27c-2.908,1.03-2.007.618-2.9,1a6.628,6.628,0,0,0-3.642,3.882c-.258.733-.091.089-2.7,13.156-.972,5.034-1.187,5.4-1.065,6.526.338,3.144,3.572,2.816,3.66,2.854h3.949C35.121,360.573,33.917,358.944,34.277,356.394Z" transform="translate(-0.001 -282.074)" fill="#566a75"/>
    <path id="Path_55793" data-name="Path 55793" d="M41.123,458.639H33.976c-.092-.04-3.777.33-3.685-3.512.02-.819.123-.854,1.091-5.868l.056-.281h9.686Z" transform="translate(-0.019 -380.14)" fill="#dd9a5e"/>
    <path id="Path_55794" data-name="Path 55794" d="M35.3,448.979H31.439l-.056.281c-.972,5.031-1.071,5.047-1.091,5.868-.092,3.83,3.613,3.48,3.685,3.512h3.949c-2.566,0-3.737-1.35-3.685-3.512C34.247,454.877,34.341,454.352,35.3,448.979Z" transform="translate(-0.02 -380.141)" fill="#d18c54"/>
    <path id="Path_55795" data-name="Path 55795" d="M169.87,273.671c0,9.821,0-1.119,0,6.617h0v.236a3.656,3.656,0,0,0,2.494,3.467,13.311,13.311,0,0,0,8.125,0,3.655,3.655,0,0,0,2.494-3.467v-.236h0c0-1.539,0-5.793,0-6.617A13.755,13.755,0,0,1,169.87,273.671Z" transform="translate(-118.2 -231.711)" fill="#dd9a5e"/>
    <path id="Path_55796" data-name="Path 55796" d="M173.824,284.141h-.005c0-8.222,0-5.483,0-6.057a14.393,14.393,0,0,1-3.949-1.413c0,9.821,0-1.579,0,6.157h0v.236a3.656,3.656,0,0,0,2.494,3.467,12.164,12.164,0,0,0,2.323.528A4.677,4.677,0,0,1,173.824,284.141Z" transform="translate(-118.199 -234.251)" fill="#d18c54"/>
    <path id="Path_55797" data-name="Path 55797" d="M94.412,423.7a1.185,1.185,0,0,0-1.185,1.185v12.352H95.6V424.887A1.185,1.185,0,0,0,94.412,423.7Z" transform="translate(-53.308 -358.74)" fill="#566a75"/>
    <path id="Path_55798" data-name="Path 55798" d="M235.013,486.818H196.656a2.9,2.9,0,0,1-2.9-2.9h0a1.661,1.661,0,0,1,1.661-1.661H236.25a1.661,1.661,0,0,1,1.661,1.661h0A2.9,2.9,0,0,1,235.013,486.818Z" transform="translate(-138.425 -408.319)" fill="#c6c6c6"/>
    <path id="Path_55799" data-name="Path 55799" d="M201.222,483.92h0a1.661,1.661,0,0,1,1.661-1.661h-7.464a1.661,1.661,0,0,0-1.661,1.661h0a2.9,2.9,0,0,0,2.9,2.9h7.464A2.9,2.9,0,0,1,201.222,483.92Z" transform="translate(-138.425 -408.319)" fill="#b7b7b7"/>
    <path id="Path_55800" data-name="Path 55800" d="M251.909,316.826H218.577a1.9,1.9,0,0,0-1.9,1.9v21.573a1.9,1.9,0,0,0,1.9,1.9h33.332a1.9,1.9,0,0,0,1.9-1.9V318.722A1.9,1.9,0,0,0,251.909,316.826Z" transform="translate(-157.834 -268.25)" fill="#ededed"/>
    <g id="Group_31438" data-name="Group 31438" transform="translate(58.847 48.576)">
      <path id="Path_55801" data-name="Path 55801" d="M220.631,340.295V318.722a1.9,1.9,0,0,1,1.9-1.9h-3.949a1.9,1.9,0,0,0-1.9,1.9v21.573a1.9,1.9,0,0,0,1.9,1.9h3.949A1.9,1.9,0,0,1,220.631,340.295Z" transform="translate(-216.682 -316.826)" fill="#dadada"/>
      <circle id="Ellipse_734" data-name="Ellipse 734" cx="2.738" cy="2.738" r="2.738" transform="translate(15.824 9.944)" fill="#dadada"/>
    </g>
    <path id="Path_55802" data-name="Path 55802" d="M322.6,381.7a2.737,2.737,0,1,0,2.369,4.1A2.735,2.735,0,0,1,322.6,381.7Z" transform="translate(-245.195 -323.176)" fill="#c6c6c6"/>
    <path id="Path_55803" data-name="Path 55803" d="M106.4.06a18.96,18.96,0,0,0-18.82,18.954V26.2H125.49V15.451c0-7.34-4.516-9.031-4.516-9.031C115.358-.5,106.4.06,106.4.06" transform="translate(-48.524 -0.041)" fill="#4c4846"/>
    <path id="Path_55804" data-name="Path 55804" d="M108.953.132A19.019,19.019,0,0,0,87.588,18.226c-.03.768-.01.481-.016,7.93h4.516V18.973A18.957,18.957,0,0,1,108.953.132Z" transform="translate(-48.519 0)" fill="#3d3938"/>
    <g id="Group_31439" data-name="Group 31439" transform="translate(38.763 23.668)">
      <path id="Path_55805" data-name="Path 55805" d="M90.646,154.6c-2.378-.847-4.959.728-4.959,3.027s2.581,3.875,4.959,3.027Z" transform="translate(-85.687 -154.367)" fill="#dd9a5e"/>
      <path id="Path_55806" data-name="Path 55806" d="M304.4,154.6c2.378-.847,4.959.728,4.959,3.027s-2.581,3.875-4.959,3.027Z" transform="translate(-270.869 -154.367)" fill="#dd9a5e"/>
    </g>
    <g id="Group_31440" data-name="Group 31440" transform="translate(38.755 25.536)">
      <path id="Path_55807" data-name="Path 55807" d="M85.99,166.548c-1.389,2.637,1.535,5.516,4.612,4.419v-2.784A3.793,3.793,0,0,1,85.99,166.548Z" transform="translate(-85.635 -166.548)" fill="#d18c54"/>
      <path id="Path_55808" data-name="Path 55808" d="M304.4,168.183v2.784c3.076,1.1,6-1.783,4.612-4.419A4.257,4.257,0,0,1,304.4,168.183Z" transform="translate(-270.862 -166.548)" fill="#d18c54"/>
    </g>
    <path id="Path_55809" data-name="Path 55809" d="M145.25,95.959a.717.717,0,0,1,.652.711c0,12.158.008,11.24-.02,11.805a14.4,14.4,0,0,1-4.341,9.6c-9.014,8.789-24.055,2.556-24.508-9.772-.021-.544-.012-6.841-.012-6.823a4.641,4.641,0,0,1,5.315-4.587,20.318,20.318,0,0,0,16.477-4.415,1.193,1.193,0,0,1,1.823.33A5.835,5.835,0,0,0,145.25,95.959Z" transform="translate(-73.451 -78.057)" fill="#edae6b"/>
    <path id="Path_55810" data-name="Path 55810" d="M120.984,134.3c-.018-.466-.014-9-.013-11.406a4.636,4.636,0,0,0-3.951,4.583c0-.018-.009,6.279.012,6.823a14.506,14.506,0,0,0,16.53,13.749A14.411,14.411,0,0,1,120.984,134.3Z" transform="translate(-73.452 -104.055)" fill="#dd9a5e"/>
  </g>
</svg>
